<svg width="1440" height="900" viewBox="0 0 1440 900" fill="none" xmlns="http://www.w3.org/2000/svg">
<rect width="1440" height="900" fill="#EBF3FA"/>
<g filter="url(#filter0_d_546_52)">
<path d="M678.504 250.05L653.064 250.054C653.645 249.289 654.182 248.492 654.674 247.667L657.891 242.096C663.635 232.147 658.961 224.274 647.611 224.288C642.647 224.423 637.77 225.622 633.31 227.804C639.097 214.563 632.01 204.436 616.3 204.419C599.256 204.529 578.666 216.353 570.165 231.078L565.397 239.336C563.403 242.586 562.184 246.251 561.833 250.047L540.704 250.053C537.256 250.24 533.902 251.242 530.916 252.978C527.931 254.714 525.4 257.133 523.532 260.037C520.387 265.484 522.939 269.909 529.216 269.951L667.029 269.924C670.478 269.737 673.832 268.734 676.817 266.998C679.803 265.263 682.334 262.844 684.202 259.94C687.312 254.439 684.867 249.943 678.504 250.05Z" fill="white"/>
</g>
<g filter="url(#filter1_d_546_52)">
<path d="M898.504 144.05L873.064 144.054C873.645 143.289 874.182 142.492 874.674 141.667L877.891 136.096C883.635 126.147 878.961 118.274 867.611 118.288C862.647 118.423 857.77 119.622 853.31 121.804C859.097 108.563 852.01 98.4359 836.3 98.4194C819.256 98.5288 798.666 110.353 790.165 125.078L785.397 133.336C783.403 136.586 782.184 140.251 781.833 144.047L760.704 144.053C757.256 144.24 753.902 145.242 750.916 146.978C747.931 148.714 745.4 151.133 743.532 154.037C740.387 159.484 742.939 163.909 749.216 163.951L887.029 163.924C890.478 163.737 893.832 162.734 896.817 160.998C899.803 159.263 902.334 156.844 904.202 153.94C907.312 148.439 904.867 143.943 898.504 144.05Z" fill="white"/>
</g>
<g filter="url(#filter2_d_546_52)">
<path d="M549.233 76.753L513.726 76.759C514.536 75.6912 515.286 74.579 515.973 73.4276L520.463 65.651C528.48 51.7641 521.956 40.776 506.114 40.7949C499.186 40.9838 492.379 42.6576 486.153 45.7032C494.231 27.2222 484.339 13.0865 462.411 13.0635C438.623 13.2161 409.884 29.7206 398.018 50.2732L391.363 61.7993C388.58 66.3348 386.878 71.4501 386.389 76.7489L356.898 76.7568C352.085 77.0181 347.403 78.4175 343.236 80.84C339.069 83.2624 335.537 86.6389 332.929 90.692C328.539 98.2951 332.101 104.472 340.862 104.531L533.218 104.492C538.031 104.231 542.713 102.831 546.88 100.409C551.046 97.9865 554.579 94.61 557.187 90.5569C561.527 82.879 558.114 76.6036 549.233 76.753Z" fill="white"/>
</g>
<g filter="url(#filter3_d_546_52)">
<path d="M397.565 222L230.435 222C225.777 222 222 218.201 222 213.514V157.485C222 152.799 225.777 149 230.435 149L397.565 149C402.223 149 406 152.799 406 157.485V213.514C406 218.201 402.223 222 397.565 222Z" fill="white"/>
</g>
<path d="M248 212V245L290 212H248Z" fill="white"/>
<path opacity="0.6" d="M476 493H386L472 0H1440V374.5L500 566.5C499 562.5 492.5 538 482.5 499.5C481.353 495.086 477.667 493.333 476 493Z" fill="white"/>
<g clip-path="url(#clip0_546_52)">
<path d="M595.787 657.219H515.338C513.091 657.212 510.937 656.311 509.35 654.713C507.764 653.115 506.873 650.951 506.873 648.695V648.695C506.873 646.439 507.764 644.274 509.35 642.677C510.937 641.079 513.091 640.178 515.338 640.171H595.787C598.035 640.178 600.188 641.079 601.775 642.677C603.362 644.274 604.253 646.439 604.253 648.695C604.253 650.951 603.362 653.115 601.775 654.713C600.188 656.311 598.035 657.212 595.787 657.219V657.219Z" fill="#AEC3FF"/>
<path d="M651.104 657.219H556.195C554.672 657.198 553.175 656.823 551.821 656.122C550.468 655.422 549.295 654.415 548.395 653.182C547.495 651.948 546.893 650.522 546.636 649.015C546.379 647.508 546.474 645.962 546.914 644.499L592.239 487.66C592.814 485.631 594.03 483.844 595.704 482.569C597.378 481.293 599.419 480.598 601.52 480.587H696.455C697.977 480.603 699.474 480.975 700.828 481.673C702.182 482.37 703.355 483.374 704.256 484.606C705.156 485.837 705.758 487.262 706.015 488.768C706.272 490.274 706.177 491.819 705.736 493.281L660.411 650.12C659.835 652.156 658.617 653.949 656.938 655.229C655.26 656.51 653.212 657.208 651.104 657.219V657.219Z" fill="#AEC3FF"/>
<path d="M638.063 657.219H555.379C553.857 657.198 552.359 656.823 551.006 656.122C549.652 655.422 548.479 654.415 547.58 653.182C546.68 651.948 546.078 650.522 545.821 649.015C545.564 647.508 545.659 645.962 546.099 644.499L591.424 487.66C591.999 485.631 593.215 483.844 594.888 482.569C596.562 481.293 598.603 480.598 600.704 480.587H683.309C684.831 480.603 686.328 480.975 687.682 481.673C689.036 482.37 690.209 483.374 691.11 484.606C692.01 485.837 692.612 487.262 692.869 488.768C693.126 490.274 693.031 491.819 692.59 493.281L647.265 650.12C646.695 652.139 645.492 653.919 643.834 655.198C642.177 656.477 640.153 657.185 638.063 657.219V657.219Z" fill="white"/>
<path d="M651.103 657.219H550.62C548.373 657.212 546.22 656.311 544.633 654.713C543.046 653.115 542.155 650.951 542.155 648.695V648.695C542.155 646.439 543.046 644.274 544.633 642.677C546.22 641.079 548.373 640.178 550.62 640.171H651.103C653.351 640.178 655.504 641.079 657.091 642.677C658.678 644.274 659.569 646.439 659.569 648.695C659.569 650.951 658.678 653.115 657.091 654.713C655.504 656.311 653.351 657.212 651.103 657.219V657.219Z" fill="#AEC3FF"/>
<path d="M504.665 529.964L449.061 507.505L444.25 536.72L500.248 558.096C502.264 558.887 504.466 559.07 506.584 558.624C510.195 557.788 513.35 555.597 515.403 552.501C517.456 549.405 518.252 545.637 517.627 541.971V541.971C517.097 538.811 515.536 535.917 513.19 533.744C510.844 531.57 507.846 530.241 504.665 529.964V529.964Z" fill="#AEC3FF"/>
<path d="M559.744 574.194H493.149V566.646H559.744C560.736 566.653 561.686 567.054 562.385 567.761C563.084 568.468 563.477 569.424 563.477 570.42V570.42C563.477 571.416 563.084 572.372 562.385 573.079C561.686 573.786 560.736 574.187 559.744 574.194V574.194Z" fill="#061418"/>
<path d="M501.904 574.194H406.311C403.838 574.194 401.433 573.381 399.463 571.88C397.493 570.379 396.066 568.272 395.401 565.881L378.338 503.837C377.981 502.558 377.924 501.213 378.171 499.908C378.418 498.604 378.962 497.374 379.762 496.315C380.562 495.257 381.594 494.399 382.78 493.808C383.965 493.218 385.27 492.911 386.593 492.911H475.009C476.657 492.911 478.259 493.46 479.563 494.473C480.867 495.485 481.799 496.904 482.212 498.506L501.904 574.194Z" fill="#1C2E34"/>
<path d="M444.511 537.036C444.511 538.696 444.021 540.319 443.102 541.699C442.184 543.079 440.878 544.154 439.35 544.79C437.823 545.425 436.142 545.591 434.52 545.267C432.898 544.943 431.408 544.144 430.239 542.97C429.07 541.797 428.274 540.301 427.951 538.674C427.629 537.046 427.794 535.358 428.427 533.825C429.06 532.291 430.131 530.981 431.506 530.058C432.881 529.136 434.497 528.644 436.151 528.644C437.25 528.641 438.339 528.855 439.354 529.276C440.37 529.696 441.293 530.314 442.07 531.094C442.847 531.874 443.463 532.801 443.882 533.821C444.301 534.84 444.515 535.933 444.511 537.036V537.036Z" fill="white"/>
<path d="M530.955 473.145C516.059 494.366 503.564 516.304 493 540C496 551 496 551 497.5 557C499 558.5 511.5 562 519.229 551.947C519.229 551.947 561.662 492.964 559.848 490.562C559.427 489.982 530.955 473.145 530.955 473.145Z" fill="#AEC3FF"/>
<path d="M574.335 465.966L535.82 470.928C533.95 471.172 532.247 472.133 531.066 473.608C529.886 475.083 529.319 476.96 529.484 478.845L554.486 587.257L637.117 587.046L625.287 479.425C625.4 478.465 625.323 477.492 625.06 476.561C624.798 475.63 624.354 474.761 623.756 474.003C623.157 473.245 622.415 472.614 621.572 472.145C620.73 471.676 619.803 471.379 618.845 471.271L574.335 465.966Z" fill="#AEC3FF"/>
<path d="M540.393 523.973C540.393 522.68 533.479 496.342 533.479 496.342" stroke="white" stroke-width="0.84" stroke-miterlimit="10"/>
<path d="M592.396 492.014C605.712 518.033 620.64 543.188 637.091 567.333C639.72 571.08 646.029 572.954 650.604 572.769C660.989 572.32 665.379 561.104 661.462 551.973C661.462 551.973 628.283 475.018 623.682 473.752C622.841 473.567 592.396 492.014 592.396 492.014Z" fill="#AEC3FF"/>
<path d="M568.445 557.832L586.481 556.433L585.902 574.564L570.286 574.537L568.445 557.832Z" fill="#C35F54"/>
<path d="M569.76 557.832C569.76 557.832 528.405 541.813 532.953 574.511H572.652L569.76 557.832Z" fill="#C35F54"/>
<path d="M646.135 544.69L581.276 546.669L582.538 575.699L649.921 574.432C652.163 574.13 654.307 573.319 656.19 572.062C658.074 570.805 659.648 569.135 660.793 567.176C661.938 565.218 662.624 563.024 662.799 560.761C662.975 558.497 662.634 556.223 661.804 554.111C660.6 551.021 658.408 548.42 655.572 546.715C652.737 545.01 649.417 544.298 646.135 544.69V544.69Z" fill="#AEC3FF"/>
<path d="M604.91 508.086L622.078 545.428L581.275 546.669L581.249 556.433" stroke="white" stroke-width="0.84" stroke-miterlimit="10"/>
<path d="M622.053 545.428L631.123 549.888" stroke="white" stroke-width="0.84" stroke-miterlimit="10"/>
<path d="M547.73 422.475C547.929 424.077 547.653 425.702 546.937 427.147C546.22 428.593 545.095 429.794 543.702 430.601C542.309 431.407 540.71 431.784 539.105 431.683C537.5 431.582 535.96 431.008 534.678 430.033C533.396 429.058 532.43 427.725 531.899 426.201C531.368 424.678 531.296 423.03 531.693 421.466C532.09 419.902 532.937 418.489 534.13 417.406C535.322 416.323 536.806 415.617 538.397 415.376C539.474 415.223 540.571 415.286 541.625 415.561C542.678 415.836 543.667 416.317 544.534 416.977C545.402 417.636 546.13 418.462 546.679 419.405C547.227 420.349 547.584 421.392 547.73 422.475V422.475Z" fill="#0B181B"/>
<path d="M559.218 445.118L561.137 467.787C561.794 475.704 566.868 479.584 574.44 478.871C580.881 478.264 587.585 474.517 586.823 467.523L582.169 431.922L559.218 445.118Z" fill="#C35F54"/>
<path d="M564.634 452.191C551.725 453.325 540.21 443.693 538.896 432.794L536.266 410.018C535.375 403.546 537.028 396.98 540.875 391.709C544.722 386.438 550.462 382.878 556.878 381.781C570.287 379.669 585.22 388.88 587.323 402.893L589.137 420.68C589.966 428.105 587.866 435.561 583.286 441.45C578.706 447.34 572.011 451.195 564.634 452.191V452.191Z" fill="#C35F54"/>
<path d="M551.645 424.322L551.566 429.415L554.774 429.257" stroke="#312220" stroke-width="0.58" stroke-linecap="round" stroke-linejoin="round"/>
<path d="M564.607 410.572C564.607 410.572 559.349 410.572 559.349 412.816C559.349 412.816 559.48 414.32 564.107 414.241C568.734 414.161 569.917 413.686 570.207 412.235C570.496 410.783 567.078 410.388 564.607 410.572Z" fill="#0B181B"/>
<path d="M542.917 411.786C542.917 411.786 547.255 410.968 547.781 413.027C547.781 413.027 548.096 414.425 544.31 415.059C540.524 415.692 539.236 415.323 538.789 414.188C538.342 413.053 540.866 411.998 542.917 411.786Z" fill="#0B181B"/>
<path d="M560.085 420.628C561.07 419.882 562.27 419.479 563.503 419.479C564.736 419.479 565.936 419.882 566.921 420.628" stroke="#312220" stroke-width="0.58" stroke-linecap="round" stroke-linejoin="round"/>
<path d="M547.23 421.762C547.23 421.762 544.811 419.123 541.419 422.29" stroke="#312220" stroke-width="0.58" stroke-linecap="round" stroke-linejoin="round"/>
<path d="M574.282 391.545C574.282 391.545 568.235 399.462 580.276 408.831C580.276 408.831 578.226 428.413 575.597 433.4C575.597 433.4 551.173 428.386 539.71 436.383C539.71 436.383 540.104 453.51 560.19 454.302C586.902 455.41 589.715 428.149 589.715 428.149L584.141 414.953L593.264 416.194C593.264 416.194 611.667 388.114 582.905 388.114L574.282 391.545Z" fill="#0B181B"/>
<path d="M598.969 418.49C599.335 420.676 598.824 422.919 597.548 424.729C596.273 426.538 594.335 427.768 592.159 428.148C591.082 428.301 589.985 428.238 588.931 427.963C587.878 427.688 586.889 427.207 586.022 426.548C585.154 425.888 584.425 425.062 583.877 424.119C583.329 423.175 582.971 422.132 582.826 421.049C582.653 419.985 582.691 418.898 582.937 417.849C583.184 416.799 583.633 415.809 584.261 414.934C584.888 414.059 585.681 413.317 586.594 412.75C587.507 412.182 588.523 411.801 589.583 411.628C590.643 411.455 591.726 411.493 592.772 411.74C593.817 411.987 594.803 412.438 595.675 413.068C596.547 413.698 597.286 414.494 597.851 415.41C598.416 416.327 598.796 417.346 598.969 418.41V418.49Z" fill="#C35F54"/>
<path d="M588.427 422.211C588.427 422.211 587.507 416.141 593.265 416.22" stroke="#312220" stroke-width="0.52" stroke-linecap="round" stroke-linejoin="round"/>
<path d="M575.518 392.759C563.588 393.503 551.625 393.6 539.684 393.049C539.684 393.049 526.381 388.035 531.797 379.854C536.161 373.441 546.73 378.666 546.73 378.666C546.73 378.666 546.546 372.069 551.2 370.248C556.747 368.11 572.994 366.368 586.823 388.484L575.518 392.759Z" fill="#0B181B"/>
<path d="M560.901 467.682L553.776 468.605C553.776 468.605 550.595 480.587 567.131 481.801C584.378 483.041 591.161 476.523 594.5 468.104L575.518 464.33L560.901 467.682Z" fill="#C35F54"/>
<path d="M495.884 749.454H520.203V716.439H495.884V749.454Z" fill="#C35F54"/>
<path d="M573.284 587.046L574.993 597.602C575.837 602.877 575.531 608.273 574.097 613.418C572.663 618.562 570.134 623.334 566.685 627.403C563.236 631.472 558.95 634.742 554.12 636.987C549.291 639.232 544.034 640.399 538.712 640.408H527.854V733.276L482.713 733.883L480.084 620.114C480.007 615.807 480.787 611.529 482.379 607.529C483.971 603.529 486.342 599.889 489.354 596.821C492.366 593.754 495.958 591.321 499.919 589.665C503.88 588.009 508.13 587.163 512.421 587.178L573.284 587.046Z" fill="#2B478B"/>
<path d="M518.232 746.973C512.5 748.504 499.407 752.568 493.334 743.727L452.242 766.08L524.778 765.605L521.544 749.164C521.494 748.79 521.365 748.431 521.165 748.111C520.965 747.792 520.699 747.519 520.385 747.311C520.071 747.104 519.716 746.966 519.345 746.908C518.973 746.85 518.594 746.872 518.232 746.973V746.973Z" fill="#0B181B"/>
<path d="M452.264 772.437L524.798 771.954L524.756 765.646L452.222 766.129L452.264 772.437Z" fill="white"/>
<path d="M493.754 753.492C493.57 753.408 493.408 753.281 493.281 753.122C491.823 751.022 490.05 749.161 488.023 747.607C487.898 747.524 487.79 747.417 487.707 747.293C487.623 747.168 487.565 747.028 487.536 746.881C487.506 746.734 487.506 746.582 487.536 746.435C487.565 746.288 487.624 746.148 487.707 746.023C487.878 745.776 488.136 745.603 488.429 745.54C488.722 745.476 489.028 745.526 489.285 745.68C491.572 747.376 493.578 749.424 495.227 751.75C495.318 751.87 495.385 752.008 495.423 752.155C495.461 752.302 495.469 752.455 495.447 752.605C495.425 752.755 495.373 752.899 495.295 753.029C495.216 753.159 495.113 753.271 494.99 753.36C494.821 753.504 494.613 753.593 494.392 753.617C494.172 753.64 493.95 753.597 493.754 753.492V753.492Z" fill="white"/>
<path d="M488.153 756.526C487.969 756.442 487.807 756.316 487.68 756.157C486.228 754.051 484.454 752.19 482.422 750.641C482.171 750.474 481.994 750.215 481.931 749.919C481.867 749.624 481.92 749.315 482.08 749.058C482.23 748.831 482.453 748.663 482.711 748.581C482.969 748.5 483.248 748.51 483.5 748.609C485.795 750.297 487.801 752.347 489.442 754.679C489.532 754.801 489.597 754.94 489.633 755.088C489.669 755.236 489.675 755.39 489.65 755.54C489.626 755.69 489.571 755.834 489.49 755.963C489.409 756.091 489.303 756.202 489.179 756.289C489.041 756.411 488.875 756.497 488.696 756.538C488.517 756.58 488.33 756.576 488.153 756.526V756.526Z" fill="white"/>
<path d="M482.58 759.403C482.396 759.319 482.234 759.193 482.107 759.034C480.659 756.926 478.884 755.064 476.849 753.518C476.595 753.347 476.419 753.081 476.36 752.779C476.3 752.477 476.363 752.164 476.534 751.908C476.704 751.66 476.964 751.489 477.259 751.43C477.553 751.371 477.859 751.429 478.111 751.592C480.414 753.269 482.422 755.321 484.053 757.662C484.145 757.782 484.211 757.92 484.249 758.067C484.287 758.214 484.295 758.367 484.273 758.517C484.251 758.667 484.199 758.811 484.121 758.94C484.042 759.07 483.939 759.183 483.816 759.271C483.647 759.415 483.439 759.505 483.219 759.528C482.998 759.552 482.776 759.508 482.58 759.403Z" fill="white"/>
<path d="M559.559 749.19H583.878V716.175H559.559V749.19Z" fill="#C35F54"/>
<path d="M581.565 745.601C575.834 747.131 562.872 752.146 556.799 743.305L515.707 765.658L588.243 765.182L584.851 747.791C584.801 747.42 584.672 747.064 584.473 746.747C584.275 746.429 584.012 746.158 583.701 745.951C583.39 745.744 583.039 745.605 582.67 745.545C582.302 745.485 581.925 745.504 581.565 745.601Z" fill="#0B181B"/>
<path d="M515.706 771.989L588.24 771.506L588.199 765.198L515.664 765.681L515.706 771.989Z" fill="white"/>
<path d="M557.114 753.07C556.93 752.985 556.768 752.859 556.641 752.7C555.193 750.592 553.418 748.73 551.383 747.184C551.25 747.103 551.135 746.995 551.044 746.867C550.954 746.74 550.89 746.595 550.856 746.442C550.823 746.289 550.821 746.131 550.85 745.977C550.879 745.823 550.939 745.677 551.026 745.547C551.113 745.416 551.225 745.305 551.356 745.22C551.487 745.135 551.634 745.077 551.787 745.05C551.941 745.023 552.099 745.027 552.251 745.063C552.402 745.099 552.546 745.165 552.671 745.258C554.966 746.945 556.973 748.995 558.613 751.328C558.789 751.577 558.86 751.886 558.811 752.187C558.761 752.488 558.596 752.758 558.35 752.938C558.181 753.082 557.973 753.171 557.753 753.195C557.532 753.218 557.31 753.175 557.114 753.07V753.07Z" fill="white"/>
<path d="M551.62 756.025C551.44 755.934 551.279 755.808 551.147 755.656C549.696 753.55 547.921 751.688 545.889 750.14C545.673 749.957 545.531 749.7 545.491 749.419C545.45 749.138 545.514 748.852 545.669 748.615C545.825 748.378 546.061 748.206 546.334 748.132C546.607 748.058 546.898 748.087 547.151 748.213C549.454 749.891 551.462 751.942 553.093 754.283C553.183 754.405 553.248 754.544 553.284 754.692C553.32 754.84 553.326 754.994 553.301 755.144C553.277 755.294 553.222 755.438 553.141 755.567C553.06 755.695 552.954 755.806 552.83 755.893C552.663 756.031 552.46 756.118 552.245 756.141C552.03 756.165 551.813 756.124 551.62 756.025V756.025Z" fill="white"/>
<path d="M546.046 758.981C545.855 758.895 545.691 758.758 545.573 758.585C544.12 756.488 542.345 754.635 540.315 753.096C540.075 752.918 539.912 752.655 539.861 752.36C539.809 752.065 539.873 751.761 540.04 751.513C540.206 751.264 540.461 751.09 540.753 751.026C541.044 750.962 541.349 751.013 541.603 751.169C543.893 752.863 545.898 754.912 547.545 757.239C547.691 757.445 547.765 757.693 547.758 757.946C547.751 758.198 547.661 758.441 547.504 758.638C547.346 758.835 547.129 758.975 546.885 759.037C546.641 759.099 546.383 759.079 546.152 758.981H546.046Z" fill="white"/>
<path d="M636.985 587.046L638.694 597.602C639.538 602.882 639.232 608.282 637.794 613.43C636.357 618.579 633.824 623.353 630.369 627.423C626.915 631.493 622.621 634.761 617.785 637.003C612.95 639.245 607.687 640.407 602.36 640.408H591.502V733.276L546.335 733.883L543.706 620.114C543.622 615.816 544.392 611.545 545.971 607.55C547.55 603.554 549.906 599.915 552.902 596.843C555.898 593.772 559.473 591.331 563.42 589.663C567.366 587.994 571.604 587.131 575.886 587.125L636.985 587.046Z" fill="#2B478B"/>
<path d="M543.392 640.17V618.477C543.371 609.984 546.704 601.829 552.662 595.799C558.62 589.769 566.717 586.356 575.177 586.307H583.222" stroke="white" stroke-width="0.84" stroke-miterlimit="10"/>
<path d="M439.516 774.419L374.736 581.24L322.628 772.071" stroke="#233862" stroke-width="5" stroke-miterlimit="10"/>
<path d="M711.756 774.419L647.002 581.24L594.895 772.071" stroke="#233862" stroke-width="5" stroke-miterlimit="10"/>
<path d="M740.124 574.221H279.959V587.31H740.124V574.221Z" fill="#FFED9F"/>
<path d="M351.522 403.605H460.391C463.426 403.605 465.886 401.136 465.886 398.09V361.671C465.886 358.624 463.426 356.155 460.391 356.155H351.522C348.487 356.155 346.027 358.624 346.027 361.671V398.09C346.027 401.136 348.487 403.605 351.522 403.605Z" fill="white"/>
<path d="M444.802 374.338H365.167" stroke="#F1D5CE" stroke-width="0.98" stroke-linecap="round" stroke-linejoin="round"/>
<path d="M392.693 386.953H365.43" stroke="#F1D5CE" stroke-width="0.98" stroke-linecap="round" stroke-linejoin="round"/>
<path d="M449.061 397.272V418.727L421.797 397.272H449.061Z" fill="white"/>
<path d="M261.109 433.691L277.83 500.037L310.535 556.803L299.256 566.356L252.906 508.086L234.397 454.407L261.109 433.691Z" fill="#F9B0A3"/>
<path d="M310.536 556.803L339.456 565.406C342.216 566.198 344.714 567.306 345.66 570.051C346.014 571.423 345.855 572.878 345.213 574.141V574.141C344.647 575.341 343.698 576.317 342.517 576.915C341.336 577.512 339.991 577.697 338.693 577.44L314.453 574.273L318.081 580.554C318.459 581.095 318.662 581.74 318.662 582.401C318.662 583.062 318.459 583.707 318.081 584.249C317.592 584.908 316.87 585.355 316.064 585.497C315.257 585.639 314.427 585.467 313.743 585.014L305.225 579.34C302.911 577.802 301.274 575.431 300.651 572.716L299.205 566.277L302.649 556.723L310.536 556.803Z" fill="#F9B0A3"/>
<path d="M264.027 421.815L275.253 462.588L239.787 478.819L250.934 445.593L264.027 421.815Z" fill="#8C9DF4"/>
<path d="M220.937 401.916C220.937 401.916 186.891 389.328 167.12 425.404C147.349 461.48 131.549 539.833 131.549 539.833L219.622 547.223L254.142 446.173C258.48 436.857 269.312 424.771 261.635 417.962C257.285 414.286 252.203 411.586 246.728 410.045L220.937 401.916Z" fill="#8C9DF4"/>
<path d="M243.573 477.076L253.59 447.809" stroke="white" stroke-width="1.02" stroke-miterlimit="10"/>
<path d="M235.948 492.621L200.166 416.695L172.325 457.785L211.445 511.595C213.173 513.999 215.469 515.934 218.125 517.229C220.782 518.523 223.717 519.135 226.667 519.011L301.28 515.633L310.955 502.596L235.948 492.621Z" fill="#FFC1B2"/>
<path d="M310.956 502.517L343.293 504.417L356.438 508.877C357.146 509.108 357.736 509.606 358.085 510.266C358.433 510.926 358.512 511.696 358.305 512.414V512.414C358.09 513.141 357.604 513.756 356.947 514.13C356.29 514.504 355.514 514.608 354.782 514.419L341.768 510.909L332.593 510.197L336.536 513.759C338.421 515.461 339.766 517.682 340.401 520.146L340.953 522.257C341.332 523.688 341.133 525.212 340.4 526.496C339.666 527.781 338.458 528.724 337.036 529.119L330.674 530.913C329.347 531.296 327.927 531.174 326.684 530.57C325.442 529.966 324.466 528.923 323.943 527.641L321.945 522.732L315.767 519.618C312.884 520.305 309.881 520.297 307.002 519.595C304.124 518.893 301.451 517.518 299.204 515.58C292.421 509.854 299.992 508.165 300.702 507.848C301.412 507.531 310.956 502.517 310.956 502.517Z" fill="#FFC1B2"/>
<path d="M203.743 411.1L234.398 463.776L186.733 497.714L162.388 445.461L203.743 411.1Z" fill="#8C9DF4"/>
<path d="M224.881 470.532L205.347 433.691" stroke="white" stroke-width="1.02" stroke-miterlimit="10"/>
<path d="M270.915 750.932L267.944 692.345L241.627 696.937L248.963 757.451L271.546 753.122L270.915 750.932Z" fill="#FFC1B2"/>
<path d="M245.677 745.971C245.677 745.971 264.448 753.888 273.308 741.141L318.922 765.077L239.84 765.236L245.677 745.971Z" fill="#45509B"/>
<path d="M318.869 771.807L239.761 771.992L239.84 765.104L318.922 764.945L318.869 771.807Z" fill="white"/>
<path d="M272.808 751.644C273.021 751.557 273.203 751.411 273.334 751.222C275.005 748.914 277.018 746.876 279.302 745.178C279.44 745.088 279.559 744.971 279.651 744.834C279.743 744.696 279.807 744.542 279.839 744.38C279.87 744.218 279.87 744.05 279.836 743.889C279.803 743.727 279.737 743.573 279.644 743.437C279.549 743.299 279.429 743.182 279.289 743.092C279.149 743.002 278.993 742.94 278.829 742.911C278.665 742.881 278.497 742.885 278.335 742.921C278.172 742.956 278.019 743.024 277.883 743.12C275.335 744.959 273.105 747.206 271.284 749.77C271.184 749.902 271.112 750.053 271.073 750.213C271.033 750.374 271.027 750.541 271.054 750.704C271.081 750.867 271.141 751.023 271.23 751.162C271.32 751.301 271.436 751.42 271.573 751.512C271.749 751.642 271.956 751.722 272.173 751.745C272.39 751.769 272.609 751.734 272.808 751.644V751.644Z" fill="white"/>
<path d="M279.012 754.811C279.219 754.716 279.399 754.571 279.537 754.389C281.199 752.073 283.213 750.033 285.505 748.345C285.643 748.255 285.762 748.138 285.854 748.001C285.946 747.863 286.01 747.709 286.042 747.547C286.074 747.385 286.073 747.218 286.039 747.056C286.006 746.894 285.941 746.74 285.847 746.604C285.656 746.328 285.365 746.138 285.036 746.074C284.707 746.01 284.366 746.077 284.086 746.261C281.541 748.114 279.313 750.369 277.487 752.937C277.387 753.069 277.315 753.22 277.276 753.38C277.236 753.541 277.23 753.708 277.257 753.871C277.284 754.034 277.344 754.19 277.433 754.329C277.523 754.468 277.639 754.587 277.776 754.679C277.954 754.804 278.161 754.882 278.377 754.905C278.593 754.928 278.811 754.896 279.012 754.811V754.811Z" fill="white"/>
<path d="M285.217 757.952C285.428 757.875 285.611 757.737 285.743 757.556C287.394 755.23 289.409 753.189 291.711 751.512C291.849 751.422 291.968 751.305 292.06 751.167C292.152 751.03 292.216 750.876 292.248 750.714C292.279 750.551 292.279 750.384 292.245 750.222C292.212 750.06 292.146 749.907 292.053 749.77C291.861 749.495 291.57 749.305 291.242 749.24C290.913 749.176 290.572 749.243 290.292 749.427C287.744 751.266 285.514 753.513 283.693 756.078C283.52 756.3 283.428 756.574 283.431 756.855C283.434 757.136 283.532 757.408 283.709 757.626C283.887 757.844 284.133 757.995 284.407 758.054C284.681 758.113 284.967 758.077 285.217 757.952V757.952Z" fill="white"/>
<path d="M219.622 547.223L268.733 620.615C273.991 629.72 273.545 632.834 274.228 643.311L279.355 731.851L236.08 734.781L225.196 646.874L171.616 560.18L168.987 542.789L219.622 547.223Z" fill="#233862"/>
<path d="M152.293 754.917L167.752 694.351L141.461 698.916L129.735 754.917L151.215 757.45L152.293 754.917Z" fill="#FFC1B2"/>
<path d="M128.71 745.971C128.71 745.971 147.507 753.888 156.341 741.141L201.981 765.077L122.873 765.236L128.71 745.971Z" fill="#45509B"/>
<path d="M201.928 771.807L122.819 771.992L122.872 765.104L201.98 764.945L201.928 771.807Z" fill="white"/>
<path d="M155.867 751.644C156.071 751.544 156.25 751.4 156.393 751.222C158.05 748.911 160.054 746.873 162.334 745.179C162.469 745.087 162.584 744.969 162.674 744.833C162.763 744.696 162.825 744.543 162.855 744.383C162.886 744.222 162.884 744.057 162.851 743.897C162.818 743.737 162.754 743.585 162.663 743.45C162.571 743.315 162.454 743.199 162.318 743.109C162.182 743.02 162.03 742.958 161.87 742.927C161.71 742.896 161.546 742.898 161.386 742.931C161.227 742.964 161.075 743.028 160.941 743.12C158.381 744.954 156.142 747.201 154.316 749.771C154.22 749.904 154.151 750.054 154.113 750.214C154.076 750.374 154.07 750.54 154.097 750.702C154.124 750.864 154.183 751.019 154.27 751.158C154.357 751.297 154.471 751.418 154.605 751.512C154.786 751.642 154.997 751.722 155.218 751.745C155.44 751.768 155.663 751.733 155.867 751.644Z" fill="white"/>
<path d="M162.072 754.811C162.271 754.702 162.449 754.559 162.598 754.389C164.246 752.07 166.252 750.03 168.54 748.345C168.817 748.162 169.011 747.877 169.08 747.55C169.149 747.224 169.087 746.884 168.908 746.604C168.716 746.328 168.425 746.138 168.096 746.074C167.768 746.01 167.427 746.077 167.146 746.261C164.59 748.109 162.353 750.365 160.521 752.937C160.425 753.071 160.356 753.221 160.319 753.381C160.281 753.541 160.276 753.707 160.303 753.869C160.33 754.031 160.389 754.186 160.476 754.325C160.563 754.464 160.677 754.585 160.81 754.679C160.993 754.804 161.205 754.882 161.425 754.905C161.645 754.928 161.867 754.896 162.072 754.811Z" fill="white"/>
<path d="M168.277 757.952C168.48 757.862 168.66 757.727 168.803 757.556C170.442 755.23 172.449 753.188 174.744 751.512C175.022 751.329 175.216 751.043 175.285 750.717C175.354 750.391 175.292 750.051 175.112 749.77C174.921 749.495 174.63 749.305 174.301 749.24C173.972 749.176 173.631 749.243 173.351 749.427C170.791 751.261 168.552 753.508 166.726 756.078C166.629 756.213 166.56 756.366 166.522 756.528C166.484 756.69 166.479 756.858 166.505 757.022C166.532 757.186 166.591 757.344 166.679 757.485C166.766 757.626 166.88 757.749 167.015 757.846C167.198 757.971 167.411 758.047 167.632 758.065C167.853 758.084 168.075 758.045 168.277 757.952V757.952Z" fill="white"/>
<path d="M196.776 598.077L196.697 587.706L210.894 571.159" stroke="#E2E2E2" stroke-width="0.76" stroke-miterlimit="10"/>
<path d="M134.02 540.124C134.02 540.124 122.426 564.878 137.096 598.632C137.649 599.925 138.201 601.086 138.779 602.194L144.721 653.445L124.293 736.206L169.329 736.734L193.648 663.922C194.581 660.274 195.162 656.545 195.383 652.785L194.778 558.835L205.294 546.088L134.02 540.124Z" fill="#233862"/>
<path d="M281.064 348.977C281.064 348.977 290.792 369.35 273.703 368.743L281.064 348.977Z" fill="#233862"/>
<path d="M262.003 373.863C261.367 375.499 261.225 377.286 261.597 379.001C261.968 380.717 262.835 382.284 264.09 383.507C265.344 384.73 266.931 385.554 268.65 385.876C270.369 386.198 272.144 386.004 273.754 385.318C275.364 384.632 276.736 383.484 277.699 382.018C278.661 380.553 279.172 378.835 279.166 377.079C279.161 375.324 278.639 373.609 277.667 372.15C276.695 370.691 275.316 369.552 273.702 368.876C272.608 368.429 271.437 368.204 270.255 368.213C269.074 368.222 267.907 368.465 266.82 368.929C265.732 369.392 264.747 370.067 263.921 370.913C263.094 371.76 262.442 372.763 262.003 373.863Z" fill="#F1998A"/>
<path d="M250.514 392.706L243.416 413.449C240.944 420.759 235.292 423.161 228.377 420.707C222.488 418.727 216.967 413.449 219.412 407.195L232.084 375.024L250.514 392.706Z" fill="#FFC1B2"/>
<path d="M245.834 406.561C245.834 406.561 228.482 402.18 229.744 381.305C230.139 374.734 251.276 390.595 251.276 390.595L245.834 406.561Z" fill="#F9B0A3"/>
<path d="M242.233 396.638C254.037 400.729 267.103 394.421 270.863 384.525L278.619 363.782C280.93 357.939 280.898 351.425 278.531 345.605C276.164 339.786 271.645 335.111 265.92 332.562V332.562C253.853 327.284 237.711 332.562 232.479 345.044L226.642 361.275C224.115 368.045 224.333 375.539 227.247 382.15C230.162 388.761 235.542 393.963 242.233 396.638V396.638Z" fill="#FFC1B2"/>
<path d="M260.82 373.916L259.795 378.349L256.824 377.479" stroke="#0B181B" stroke-width="0.53" stroke-linecap="round" stroke-linejoin="round"/>
<path d="M254.773 352.54C254.773 352.54 259.768 353.806 259.111 355.865C259.111 355.865 258.638 357.237 254.326 356.076C250.014 354.915 249.068 354.202 249.068 352.751C249.068 351.299 252.486 351.774 254.773 352.54Z" fill="#233862"/>
<path d="M274.254 360.246C274.254 360.246 270.39 358.451 269.417 360.246C269.417 360.246 268.786 361.46 272.204 362.885C275.622 364.31 276.884 364.31 277.462 363.386C278.04 362.462 276.147 360.932 274.254 360.246Z" fill="#233862"/>
<path d="M266.235 371.435C266.027 371.978 266.04 372.581 266.271 373.114C266.502 373.647 266.933 374.068 267.47 374.285C268.014 374.48 268.613 374.451 269.135 374.204C269.658 373.956 270.061 373.511 270.257 372.966C270.38 372.696 270.447 372.404 270.453 372.108C270.459 371.811 270.404 371.517 270.292 371.243C270.18 370.968 270.013 370.72 269.801 370.513C269.59 370.306 269.338 370.145 269.062 370.04C268.785 369.935 268.491 369.888 268.196 369.902C267.901 369.916 267.611 369.991 267.346 370.122C267.081 370.252 266.846 370.437 266.655 370.662C266.463 370.888 266.32 371.151 266.235 371.435Z" fill="#0B181B"/>
<path d="M248.621 364.706C248.414 365.249 248.427 365.851 248.658 366.385C248.889 366.918 249.32 367.338 249.857 367.556C250.39 367.695 250.956 367.632 251.445 367.378C251.935 367.125 252.314 366.699 252.51 366.182C252.705 365.664 252.704 365.093 252.505 364.577C252.307 364.061 251.925 363.637 251.434 363.386C251.163 363.286 250.875 363.24 250.587 363.252C250.298 363.264 250.015 363.333 249.753 363.456C249.491 363.579 249.257 363.752 249.062 363.967C248.868 364.181 248.718 364.433 248.621 364.706Z" fill="#0B181B"/>
<path d="M263.213 370.248C262.494 372.121 262.344 374.165 262.782 376.123C263.219 378.081 264.225 379.865 265.671 381.25C267.117 382.636 268.94 383.56 270.909 383.907C272.878 384.254 274.905 384.007 276.735 383.199C278.565 382.391 280.115 381.057 281.191 379.366C282.266 377.674 282.819 375.701 282.778 373.695C282.738 371.688 282.107 369.739 280.964 368.092C279.822 366.446 278.219 365.176 276.358 364.442C275.116 363.952 273.789 363.714 272.454 363.741C271.12 363.768 269.804 364.06 268.582 364.599C267.36 365.139 266.257 365.916 265.335 366.885C264.414 367.855 263.693 368.998 263.213 370.248V370.248Z" stroke="white" stroke-width="0.49" stroke-miterlimit="10"/>
<path d="M246.885 356.181C245.05 356.983 243.493 358.313 242.411 360.003C241.329 361.692 240.77 363.666 240.805 365.675C240.84 367.683 241.467 369.636 242.608 371.286C243.748 372.937 245.35 374.212 247.211 374.949C249.073 375.686 251.11 375.852 253.066 375.428C255.022 375.003 256.808 374.006 258.2 372.562C259.591 371.119 260.525 369.294 260.884 367.317C261.242 365.341 261.009 363.303 260.214 361.46C259.685 360.234 258.921 359.124 257.964 358.195C257.008 357.266 255.878 356.536 254.64 356.045C253.402 355.555 252.08 355.315 250.749 355.338C249.418 355.362 248.105 355.648 246.885 356.181V356.181Z" stroke="white" stroke-width="0.49" stroke-miterlimit="10"/>
<path d="M241.495 361.803L232.583 358.345" stroke="white" stroke-width="0.49" stroke-miterlimit="10"/>
<path d="M259.61 370.96L262.449 372.069" stroke="white" stroke-width="0.49" stroke-miterlimit="10"/>
<path d="M248.49 379.722C248.49 379.722 250.646 384.076 258.822 384.076" stroke="#0B181B" stroke-width="0.53" stroke-linecap="round" stroke-linejoin="round"/>
<path d="M226.668 330.53C227.731 328.095 229.705 326.177 232.164 325.19C234.623 324.203 237.37 324.225 239.813 325.251V325.251C245.334 320.343 256.244 318.152 266.471 322.269C280.327 327.838 290.133 340.215 289.712 348.475C289.292 356.735 278.513 352.487 278.513 352.487C268.804 349.643 259.278 346.206 249.987 342.194C248.725 347.868 245.15 356.34 235.37 353.331L227.483 369.165C227.483 369.165 220.332 342.485 226.668 330.53Z" fill="#233862"/>
<path d="M215.916 357.132C214.974 359.326 214.938 361.806 215.815 364.027C216.693 366.249 218.412 368.03 220.595 368.981C221.681 369.423 222.843 369.645 224.014 369.635C225.185 369.625 226.343 369.382 227.42 368.921C228.498 368.46 229.474 367.789 230.292 366.948C231.111 366.107 231.756 365.112 232.19 364.02C233.129 361.834 233.172 359.365 232.311 357.147C231.45 354.93 229.754 353.142 227.589 352.17C226.499 351.716 225.33 351.484 224.15 351.488C222.97 351.492 221.802 351.732 220.716 352.194C219.629 352.656 218.645 353.331 217.821 354.178C216.997 355.026 216.349 356.03 215.916 357.132V357.132Z" fill="#FFC1B2"/>
<path d="M225.853 363.755C225.853 363.755 228.482 357.686 222.382 356.26" stroke="#312220" stroke-width="0.56" stroke-linecap="round" stroke-linejoin="round"/>
<path d="M213.995 400.254L235.291 405.241L249.987 411.179C249.987 411.179 245.833 425.668 232.583 423.266C208.211 418.727 213.995 400.254 213.995 400.254Z" fill="#FFC1B2"/>
<path d="M814 773.469H45" stroke="#233862" stroke-width="5" stroke-miterlimit="10"/>
</g>
<defs>
<filter id="filter0_d_546_52" x="518.185" y="204.419" width="171.361" height="73.532" filterUnits="userSpaceOnUse" color-interpolation-filters="sRGB">
<feFlood flood-opacity="0" result="BackgroundImageFix"/>
<feColorMatrix in="SourceAlpha" type="matrix" values="0 0 0 0 0 0 0 0 0 0 0 0 0 0 0 0 0 0 127 0" result="hardAlpha"/>
<feOffset dy="4"/>
<feGaussianBlur stdDeviation="2"/>
<feComposite in2="hardAlpha" operator="out"/>
<feColorMatrix type="matrix" values="0 0 0 0 0 0 0 0 0 0 0 0 0 0 0 0 0 0 0.25 0"/>
<feBlend mode="normal" in2="BackgroundImageFix" result="effect1_dropShadow_546_52"/>
<feBlend mode="normal" in="SourceGraphic" in2="effect1_dropShadow_546_52" result="shape"/>
</filter>
<filter id="filter1_d_546_52" x="738.185" y="98.4194" width="171.361" height="73.532" filterUnits="userSpaceOnUse" color-interpolation-filters="sRGB">
<feFlood flood-opacity="0" result="BackgroundImageFix"/>
<feColorMatrix in="SourceAlpha" type="matrix" values="0 0 0 0 0 0 0 0 0 0 0 0 0 0 0 0 0 0 127 0" result="hardAlpha"/>
<feOffset dy="4"/>
<feGaussianBlur stdDeviation="2"/>
<feComposite in2="hardAlpha" operator="out"/>
<feColorMatrix type="matrix" values="0 0 0 0 0 0 0 0 0 0 0 0 0 0 0 0 0 0 0.25 0"/>
<feBlend mode="normal" in2="BackgroundImageFix" result="effect1_dropShadow_546_52"/>
<feBlend mode="normal" in="SourceGraphic" in2="effect1_dropShadow_546_52" result="shape"/>
</filter>
<filter id="filter2_d_546_52" x="327.049" y="13.0635" width="236.014" height="99.467" filterUnits="userSpaceOnUse" color-interpolation-filters="sRGB">
<feFlood flood-opacity="0" result="BackgroundImageFix"/>
<feColorMatrix in="SourceAlpha" type="matrix" values="0 0 0 0 0 0 0 0 0 0 0 0 0 0 0 0 0 0 127 0" result="hardAlpha"/>
<feOffset dy="4"/>
<feGaussianBlur stdDeviation="2"/>
<feComposite in2="hardAlpha" operator="out"/>
<feColorMatrix type="matrix" values="0 0 0 0 0 0 0 0 0 0 0 0 0 0 0 0 0 0 0.25 0"/>
<feBlend mode="normal" in2="BackgroundImageFix" result="effect1_dropShadow_546_52"/>
<feBlend mode="normal" in="SourceGraphic" in2="effect1_dropShadow_546_52" result="shape"/>
</filter>
<filter id="filter3_d_546_52" x="218" y="149" width="192" height="81" filterUnits="userSpaceOnUse" color-interpolation-filters="sRGB">
<feFlood flood-opacity="0" result="BackgroundImageFix"/>
<feColorMatrix in="SourceAlpha" type="matrix" values="0 0 0 0 0 0 0 0 0 0 0 0 0 0 0 0 0 0 127 0" result="hardAlpha"/>
<feOffset dy="4"/>
<feGaussianBlur stdDeviation="2"/>
<feComposite in2="hardAlpha" operator="out"/>
<feColorMatrix type="matrix" values="0 0 0 0 0 0 0 0 0 0 0 0 0 0 0 0 0 0 0.25 0"/>
<feBlend mode="normal" in2="BackgroundImageFix" result="effect1_dropShadow_546_52"/>
<feBlend mode="normal" in="SourceGraphic" in2="effect1_dropShadow_546_52" result="shape"/>
</filter>
<clipPath id="clip0_546_52">
<rect width="769" height="455" fill="white" transform="translate(45 320)"/>
</clipPath>
</defs>
</svg>
