<svg width="710" height="416" viewBox="0 0 710 416" fill="none" xmlns="http://www.w3.org/2000/svg">
<g clip-path="url(#clip0)">
<path d="M684.943 413.002C671.832 413.002 644.962 414.182 644.678 414.718H576.933L557.12 414.666H379.575L327.728 414.611H191.045L133.958 414.559H30.7205L30.2078 413.265L30.1508 413.158C30.1229 413.108 30.1037 413.053 30.0939 412.997C29.866 412.568 -55.8169 241.505 85.6481 157.179C140.999 124.186 111.831 58.3012 193.755 18.3922C299.38 -33.0676 328.169 41.7018 453.062 23.6244C561.541 7.92516 610.965 57.9243 603.352 132.287C599.776 167.217 624.327 193.991 648.546 198.791C715.359 212.041 712.964 289.644 707.491 346.659C704.143 381.812 685.406 413.002 684.943 413.002Z" fill="#AEC3FF"/>
<path opacity="0.5" d="M530.323 117.386L525.369 114.411C525.169 114.287 525.007 114.11 524.9 113.899C524.793 113.689 524.747 113.453 524.765 113.218C524.818 112.608 524.844 111.99 524.842 111.365C524.849 110.228 524.766 109.092 524.594 107.968C524.553 107.718 524.587 107.461 524.694 107.23C524.8 107 524.974 106.807 525.191 106.676L530.353 103.557C530.621 103.396 530.819 103.14 530.907 102.84C530.994 102.54 530.965 102.217 530.826 101.937L528.396 96.978C528.261 96.7101 528.033 96.5004 527.755 96.3878C527.478 96.2751 527.168 96.2672 526.885 96.3655L521.667 98.265C521.417 98.357 521.145 98.3662 520.89 98.2912C520.635 98.2162 520.41 98.0609 520.25 97.8484C518.807 95.9822 517.077 94.3569 515.126 93.0327C514.896 92.873 514.725 92.6419 514.64 92.3752C514.554 92.1085 514.559 91.8211 514.653 91.5573L515.812 88.3807C515.917 88.0866 515.91 87.7643 515.795 87.4744C515.679 87.1844 515.461 86.9468 515.183 86.8061L510.267 84.3982C510.17 84.3466 510.065 84.3106 509.957 84.2916C509.706 84.2408 509.446 84.269 509.212 84.3725C508.977 84.476 508.781 84.6496 508.649 84.8694L506.42 88.5642L505.878 89.4643C504.848 89.318 503.81 89.2443 502.77 89.2437C501.38 89.2436 499.993 89.3722 498.626 89.628C498.378 89.6777 498.121 89.6493 497.89 89.5467C497.659 89.4441 497.466 89.2724 497.336 89.0552L494.832 84.8892C494.668 84.6137 494.407 84.4099 494.1 84.318C493.793 84.2262 493.463 84.253 493.175 84.3933L489.393 86.2531L488.308 86.7887C488.022 86.9287 487.798 87.1698 487.678 87.4656C487.559 87.7613 487.553 88.0908 487.662 88.3906L489.242 92.7575C489.333 93.0009 489.346 93.2669 489.278 93.5179C489.21 93.7689 489.065 93.9922 488.863 94.156C487.637 95.1569 486.52 96.2858 485.532 97.5235C485.444 97.6215 485.361 97.7241 485.284 97.831C485.258 97.8678 485.228 97.9018 485.195 97.9327C485.025 98.1137 484.805 98.2402 484.563 98.2962C484.321 98.3523 484.068 98.3354 483.836 98.2476L478.684 96.3853C478.626 96.3631 478.567 96.3465 478.506 96.3357C478.232 96.2814 477.948 96.3185 477.697 96.4412C477.446 96.5639 477.242 96.7655 477.116 97.0152L474.711 101.92C474.572 102.206 474.544 102.534 474.633 102.84C474.723 103.145 474.923 103.406 475.194 103.572L480.351 106.679C480.566 106.805 480.737 106.994 480.841 107.221C480.945 107.447 480.978 107.7 480.935 107.946C480.767 109.076 480.684 110.218 480.688 111.361C480.688 111.979 480.713 112.59 480.764 113.196C480.783 113.436 480.735 113.677 480.625 113.892C480.515 114.106 480.347 114.286 480.14 114.411L475.187 117.411C474.922 117.572 474.727 117.826 474.64 118.123C474.553 118.42 474.58 118.74 474.716 119.018L477.126 123.915C477.267 124.203 477.508 124.428 477.804 124.548C478.101 124.668 478.431 124.674 478.731 124.565L482.862 123.065C483.13 122.969 483.421 122.966 483.691 123.056C483.96 123.146 484.192 123.324 484.348 123.561C485.615 125.481 487.172 127.192 488.962 128.634C489.172 128.8 489.324 129.027 489.396 129.284C489.469 129.541 489.458 129.815 489.366 130.065L487.679 134.717C487.571 135.019 487.576 135.349 487.696 135.647C487.815 135.944 488.039 136.187 488.326 136.329L493.205 138.732C493.487 138.871 493.81 138.898 494.111 138.809C494.412 138.72 494.668 138.521 494.83 138.251L494.961 138.038L497.549 133.745C497.683 133.522 497.882 133.345 498.119 133.239C498.357 133.132 498.621 133.1 498.876 133.148C500.165 133.377 501.471 133.493 502.78 133.492C503.49 133.492 504.189 133.455 504.887 133.393C505.124 133.366 505.364 133.408 505.577 133.514C505.791 133.62 505.969 133.786 506.091 133.991L508.632 138.221C508.799 138.5 509.065 138.706 509.376 138.798C509.688 138.89 510.022 138.861 510.314 138.717L515.185 136.317C515.319 136.248 515.44 136.159 515.544 136.051C515.706 135.88 515.818 135.667 515.867 135.436C515.915 135.205 515.9 134.965 515.822 134.742L514.551 131.256C514.479 131.047 514.461 130.824 514.499 130.607C514.538 130.39 514.632 130.186 514.772 130.016C514.848 129.922 514.936 129.838 515.034 129.768C517.491 128.13 519.596 126.017 521.226 123.553C521.36 123.349 521.55 123.189 521.775 123.092C521.999 122.996 522.247 122.969 522.487 123.013C522.556 123.026 522.625 123.044 522.692 123.067L526.865 124.587C527.158 124.694 527.48 124.689 527.77 124.573C528.059 124.457 528.295 124.238 528.433 123.958L528.49 123.844L530.838 119.068C530.98 118.774 531.006 118.437 530.91 118.126C530.815 117.814 530.605 117.55 530.323 117.386ZM491.313 107.963C491.561 107.075 491.893 106.213 492.303 105.387C493.123 103.74 495.144 101.704 496.794 100.891C496.969 100.804 497.145 100.722 497.321 100.643C508.109 95.7902 518.516 106.396 513.286 117.205C512.6 118.619 511.082 120.275 509.603 121.302C509.282 121.524 508.945 121.722 508.595 121.894C507.195 122.588 505.688 123.036 504.137 123.219C495.813 124.144 488.965 116.486 491.315 107.963H491.313Z" fill="#DFEBF9"/>
<path d="M317.977 92.3558L305.715 86.6523C305.217 86.4153 304.793 86.0448 304.491 85.5818C304.19 85.1188 304.022 84.5813 304.006 84.0288C303.968 82.5938 303.871 81.1489 303.714 79.6942C303.437 77.0444 302.95 74.4208 302.258 71.8482C302.097 71.2749 302.112 70.6662 302.303 70.102C302.493 69.5377 302.85 69.0443 303.325 68.6866L314.559 60.1339C315.144 59.6928 315.541 59.0463 315.669 58.3245C315.797 57.6027 315.648 56.8591 315.251 56.2432L308.343 45.3174C307.965 44.7228 307.382 44.288 306.705 44.096C306.028 43.9039 305.303 43.968 304.67 44.2759L292.993 50.0141C292.436 50.2948 291.803 50.387 291.19 50.277C290.576 50.167 290.015 49.8607 289.59 49.404C285.758 45.4217 281.319 42.0736 276.439 39.4851C275.863 39.1721 275.406 38.6774 275.14 38.0778C274.874 37.4782 274.813 36.8073 274.967 36.1696L276.865 28.4824C277.034 27.7701 276.938 27.0203 276.595 26.3737C276.252 25.7272 275.684 25.2284 275 24.9711L262.941 20.6067C262.703 20.5127 262.453 20.455 262.198 20.4356C261.599 20.3769 260.996 20.5074 260.475 20.809C259.954 21.1105 259.541 21.5679 259.293 22.1169L255.035 31.292L254 33.5237C251.564 33.4422 249.125 33.5333 246.701 33.7965C243.464 34.1447 240.267 34.7947 237.151 35.7381C236.586 35.9151 235.98 35.9131 235.416 35.7325C234.853 35.5518 234.358 35.2014 234.001 34.7289L227.113 25.658C226.66 25.0621 225.999 24.6583 225.263 24.5265C224.526 24.3948 223.767 24.5445 223.136 24.9463L214.792 30.2356L212.404 31.7557C211.773 32.1538 211.311 32.7716 211.107 33.4903C210.903 34.209 210.972 34.9778 211.3 35.6489L216.08 45.424C216.358 45.9665 216.457 46.5835 216.363 47.186C216.268 47.7886 215.985 48.3456 215.554 48.7767C212.948 51.4138 210.633 54.3236 208.647 57.4558C208.464 57.708 208.293 57.9695 208.137 58.2394C208.085 58.3272 208.025 58.4102 207.959 58.4874C207.607 58.9517 207.126 59.3017 206.577 59.4932C206.027 59.6847 205.434 59.7092 204.87 59.5636L192.38 56.4986C192.242 56.4599 192.1 56.4349 191.957 56.4242C191.304 56.367 190.65 56.5257 190.096 56.8759C189.542 57.2261 189.117 57.7486 188.888 58.3634L184.524 70.3926C184.269 71.0937 184.286 71.8652 184.573 72.5541C184.859 73.243 185.393 73.7992 186.07 74.1122L198.862 80.0463C199.392 80.2888 199.837 80.6866 200.137 81.1873C200.437 81.688 200.579 82.268 200.543 82.8509C200.423 85.5273 200.506 88.209 200.791 90.8729C200.946 92.3111 201.159 93.7287 201.43 95.1256C201.536 95.6813 201.485 96.2557 201.283 96.784C201.081 97.3123 200.736 97.7737 200.286 98.1162L189.488 106.359C188.91 106.8 188.519 107.441 188.391 108.156C188.263 108.871 188.406 109.608 188.794 110.222L195.645 121.019C196.044 121.658 196.666 122.125 197.39 122.33C198.114 122.535 198.889 122.463 199.563 122.128L208.803 117.59C209.399 117.292 210.078 117.204 210.73 117.339C211.382 117.474 211.97 117.824 212.399 118.334C215.834 122.489 219.892 126.086 224.428 128.997C224.955 129.33 225.363 129.82 225.596 130.399C225.829 130.977 225.875 131.614 225.726 132.22L222.97 143.481C222.795 144.211 222.893 144.98 223.246 145.642C223.6 146.304 224.183 146.814 224.887 147.074L236.856 151.433C237.547 151.686 238.307 151.669 238.985 151.387C239.664 151.104 240.211 150.576 240.519 149.908L240.767 149.375L245.72 138.725C245.976 138.169 246.394 137.705 246.921 137.394C247.447 137.084 248.056 136.942 248.665 136.989C251.724 137.201 254.795 137.141 257.844 136.81C259.501 136.629 261.12 136.364 262.73 136.041C263.275 135.924 263.842 135.964 264.365 136.157C264.888 136.35 265.345 136.689 265.682 137.133L272.672 146.34C273.13 146.948 273.799 147.362 274.548 147.5C275.296 147.637 276.069 147.489 276.713 147.084L287.485 140.257C287.776 140.064 288.036 139.825 288.252 139.55C288.585 139.108 288.79 138.583 288.846 138.032C288.901 137.481 288.805 136.926 288.567 136.426L284.726 128.629C284.499 128.159 284.399 127.637 284.433 127.116C284.468 126.594 284.637 126.09 284.924 125.654C285.082 125.423 285.269 125.213 285.481 125.029C290.781 120.592 295.142 115.14 298.31 108.992C298.573 108.486 298.977 108.068 299.474 107.789C299.971 107.511 300.538 107.383 301.106 107.423C301.273 107.436 301.439 107.462 301.602 107.502L311.706 109.982C312.415 110.155 313.163 110.06 313.807 109.717C314.451 109.374 314.946 108.805 315.199 108.12L315.303 107.839L319.565 96.1175C319.817 95.4053 319.794 94.6242 319.501 93.928C319.207 93.2318 318.663 92.6709 317.977 92.3558ZM224.738 80.2719C225.097 78.1389 225.655 76.0443 226.405 74.0155C227.891 69.9785 232.089 64.7239 235.725 62.4128C236.113 62.1648 236.502 61.9292 236.894 61.6937C260.801 47.6608 287.712 69.738 278.254 96.2366C277.016 99.7082 273.895 103.944 270.71 106.711C270.019 107.309 269.285 107.855 268.513 108.345C265.424 110.316 262.021 111.742 258.45 112.561C239.301 116.818 221.417 100.715 224.738 80.2719Z" fill="#CDE0FB"/>
<path d="M519.182 369.835C515.246 371.322 489.179 374.07 490.254 377.375C491.329 380.681 509.548 384.014 518.984 379.811C518.984 379.811 511.321 407.832 496.964 408.152C482.606 408.471 477.175 400.196 468.309 400.561C459.442 400.926 453.295 404.05 457.968 405.9C462.642 407.75 477.329 404.397 485.14 409.6C486.287 410.361 487.399 411.088 488.419 411.76C489.033 412.171 489.618 412.568 490.153 412.955H437.94C437.94 412.531 437.94 412.132 437.94 411.76C437.922 410.599 437.839 409.44 437.692 408.288C437.692 408.288 410.667 397.074 420.219 376.384C420.219 376.384 428.286 363.419 438.066 359.174C438.066 359.174 436.052 388.579 441.533 388.616C447.014 388.653 441.419 355.685 441.419 355.685C441.419 355.685 466.605 339.666 477.202 339.443C477.202 339.443 463.955 369.492 469.277 368.176C474.599 366.859 489.833 336.231 489.833 336.231C489.833 336.231 516.614 327.917 522.924 343.641C529.235 359.365 523.12 368.339 519.182 369.835Z" fill="#DFEBF9"/>
<path d="M190.756 391.986C179.215 380.284 196.948 359.628 196.948 359.628C196.948 359.628 230.071 357.892 233.3 353.644C236.53 349.397 204.692 349.597 204.692 349.597C208.987 340.236 232.966 323.979 232.966 323.979C232.966 323.979 260.113 341.719 262.191 336.812C264.269 331.904 237.355 322.335 237.355 322.335C244.911 315.258 259.556 313.078 259.556 313.078C281.648 312.56 281.17 340.988 281.17 340.988C281.17 340.988 290.71 346.939 305.334 347.42C305.334 347.42 308.178 347.264 312.475 347.916L311.115 350.252C310.377 350.078 309.65 349.938 308.933 349.83H308.901C308.448 349.781 307.799 349.711 307.009 349.632C305.196 349.533 303.883 349.414 302.962 349.285C297.332 348.871 289.835 348.623 287.436 349.982C287.226 349.574 286.964 349.195 286.655 348.856L287.436 349.982C293.672 358.976 283.473 379.816 274.698 389.633C265.923 399.45 265.618 392.76 264.011 383.786C262.404 374.811 271.062 363.018 271.226 358.138C271.389 353.257 266.23 357.523 262.481 365.287C258.731 373.051 263.991 381.095 258.151 393.764C252.311 406.433 224.441 402.443 224.441 402.443C231.832 395.651 235.906 378.124 233.385 375.89C230.863 373.656 218.349 395.83 215.498 398.761C212.647 401.692 202.3 403.691 190.756 391.986Z" fill="#DFEBF9"/>
<path d="M194.548 254.244C197.295 242.899 216.375 245.914 216.375 245.914C216.375 245.914 229.789 265.286 233.553 265.655C237.318 266.025 225.321 246.859 225.321 246.859C232.568 245.961 251.326 254.387 251.326 254.387C251.326 254.387 250.764 277.417 254.503 276.849C258.243 276.281 253.961 256.431 253.961 256.431C261.049 258.355 267.83 266.394 267.83 266.394C276.39 279.554 259.07 289.877 259.07 289.877C259.07 289.877 259.048 297.865 264.212 306.886C265.138 308.31 265.929 309.818 266.575 311.389L264.655 311.439C264.49 310.928 264.304 310.432 264.096 309.951V309.929C263.957 309.636 263.756 309.22 263.509 308.711C262.892 307.578 262.473 306.727 262.208 306.135C260.358 302.576 257.706 297.952 255.992 297.009C256.16 296.73 256.291 296.43 256.381 296.117L255.992 297.009C252.899 304.136 236.52 305.745 227.329 304.111C218.138 302.477 222.054 299.789 226.866 295.469C231.678 291.15 242.021 291.978 245.023 290.262C248.024 288.546 243.537 287.013 237.449 287.646C231.361 288.278 228.481 294.46 218.661 295.66C208.841 296.86 200.849 278.52 200.849 278.52C207.702 280.452 219.793 276.373 220.199 274.012C220.605 271.651 202.563 272.368 199.732 271.738C196.901 271.108 191.799 265.591 194.548 254.244Z" fill="#DFEBF9"/>
<path d="M514.16 290.503C525.708 280.693 511.088 260.282 511.088 260.282C511.088 260.282 480.814 255.985 478.188 251.819C475.563 247.653 504.788 250.43 504.788 250.43C501.603 241.485 480.903 224.606 480.903 224.606C480.903 224.606 454.536 238.686 453.015 234.011C451.495 229.337 476.997 222.736 476.997 222.736C470.634 215.622 457.362 212.43 457.362 212.43C437.12 210.156 435.25 236.3 435.25 236.3C435.25 236.3 426.007 240.982 412.537 240.241C410.347 239.995 408.139 239.955 405.941 240.122L406.999 242.381C407.692 242.279 408.371 242.207 409.037 242.17H409.067C409.488 242.17 410.087 242.15 410.82 242.143C412.492 242.2 413.706 242.197 414.563 242.143C419.764 242.219 426.676 242.604 428.764 244.045C428.99 243.688 429.262 243.362 429.571 243.075L428.764 244.045C422.307 251.796 430.002 271.763 437.242 281.489C444.481 291.214 445.328 285.099 447.53 276.988C449.731 268.877 442.742 257.346 442.987 252.85C443.233 248.354 447.624 252.691 450.437 260.126C453.251 267.56 447.767 274.521 452.102 286.629C456.436 298.738 482.354 297.334 482.354 297.334C476.12 290.495 473.8 274.072 476.296 272.222C478.793 270.372 488.486 291.757 490.866 294.678C493.246 297.6 502.611 300.308 514.16 290.503Z" fill="#DFEBF9"/>
<path d="M227.004 181.027C225.744 184.416 223.562 188.352 221.271 189.329C218.675 190.437 217.59 192.004 217.59 192.004L215.495 190.787L212.991 189.329C212.991 189.329 213.048 189.051 213.172 188.585C213.296 188.119 213.482 187.504 213.734 186.807C213.96 186.487 214.105 186.116 214.157 185.728C214.209 185.339 214.166 184.943 214.031 184.575C213.561 183.335 213.655 181.418 214.46 180.248C215.265 179.077 216.038 176.198 216.52 176.28C217.692 176.481 215.946 180.439 216.446 181.173C216.899 181.837 217.467 181.609 217.573 181.56H217.59C220.877 180.112 224.862 172.315 226.625 173.377C227.287 173.768 227.549 179.583 227.004 181.027Z" fill="#FBC6B4"/>
<path d="M215.636 185.748L219.753 188.644C219.893 188.742 220.067 188.781 220.236 188.751C220.405 188.721 220.555 188.626 220.654 188.486L231.197 173.458C231.295 173.317 231.334 173.143 231.304 172.974C231.274 172.805 231.179 172.655 231.039 172.556L226.923 169.659C226.782 169.561 226.609 169.523 226.44 169.553C226.272 169.582 226.122 169.678 226.024 169.818L215.48 184.838C215.43 184.908 215.395 184.987 215.376 185.07C215.357 185.154 215.354 185.241 215.369 185.325C215.383 185.41 215.414 185.491 215.46 185.563C215.506 185.636 215.566 185.699 215.636 185.748Z" fill="#2B478B"/>
<path d="M219.406 188.399L221.819 190.097C221.926 190.172 222.058 190.201 222.186 190.179C222.314 190.157 222.429 190.085 222.505 189.978L233.224 174.703C233.298 174.596 233.327 174.464 233.305 174.335C233.283 174.207 233.211 174.092 233.105 174.016L230.693 172.32C230.586 172.245 230.454 172.216 230.325 172.238C230.197 172.261 230.082 172.333 230.006 172.439L219.285 187.714C219.212 187.822 219.183 187.953 219.206 188.081C219.229 188.209 219.301 188.323 219.406 188.399Z" fill="#233862"/>
<path d="M156.59 164.194C156.59 164.194 177.533 200.768 185.131 207.498L212.991 186.7C212.991 186.7 217.033 187.94 218.804 192.004C218.804 192.004 201.886 226.515 185.228 227.978C168.57 229.441 145.192 186.613 145.192 186.613L156.59 164.194Z" fill="#7FA0FF"/>
<path d="M109.196 412.955H97.0952C95.5696 412.127 94.2124 410.227 93.7839 407.403C93.192 403.5 88.8305 401.372 87.877 398.178C86.9235 394.984 91.7778 390.491 91.7778 390.491L92.5877 389.447L93.4297 388.361L101.462 390.255C101.462 390.255 101.66 392.17 101.781 394.61C101.886 396.468 101.897 398.33 101.816 400.189C101.568 404.444 103.005 409.03 106.769 409.86C109.575 410.473 109.451 412.132 109.196 412.955Z" fill="#233862"/>
<path d="M179.425 412.955H151.763C150.43 411.328 150.921 405.327 151.124 403.368C151.164 402.974 151.193 402.743 151.193 402.743C151.193 402.743 160.644 395.175 161.942 400.97C161.982 401.154 162.029 401.33 162.081 401.506C163.715 406.927 171.051 409.389 175.289 410.076C178.028 410.522 179.046 411.956 179.425 412.955Z" fill="#233862"/>
<path d="M174.15 258.291C174.15 258.291 172.716 276.217 171.029 297.763C168.738 327.024 165.982 362.98 165.707 369.797C165.236 381.626 163.344 400.546 163.344 400.546C163.344 400.546 158.859 405.042 149.881 403.147C149.881 403.147 141.881 376.14 139.595 347.566C139.561 347.099 139.525 346.627 139.489 346.153C137.364 317.066 134.058 255.811 134.058 255.811L174.15 258.291Z" fill="#2B478B"/>
<path d="M174.15 258.29C174.15 258.29 172.716 276.217 171.029 297.763L139.595 347.564C139.561 347.096 139.525 346.625 139.489 346.15C137.364 317.063 134.058 255.808 134.058 255.808L174.15 258.29Z" fill="#233862"/>
<path d="M167.599 260.421C167.599 260.421 141.732 325.338 124.728 355.846C107.723 386.355 102.405 394.868 102.405 394.868C102.405 394.868 92.662 390.967 91.7754 388.306C91.7754 388.306 98.2791 329.407 109.669 315.052C116.109 306.938 123.665 282.592 124.019 274.077C124.373 265.561 126.32 248.714 126.32 248.714L167.599 260.421Z" fill="#2B478B"/>
<path d="M161.16 165.783C151.052 168.975 133.564 160.358 133.564 160.358C133.564 160.358 142.884 153.355 142.394 138.796L150.21 145.102L155.518 149.385C155.444 151.709 155.243 154.026 154.916 156.328C154.762 157.494 154.572 158.791 154.331 160.209C156.929 161.632 159.244 163.522 161.16 165.783Z" fill="#FBC6B4"/>
<path d="M155.518 149.385C155.443 151.708 155.242 154.026 154.916 156.328C149.039 155.324 142.352 145.804 142.352 145.804C145.346 144.939 147.969 144.782 150.2 145.102L155.518 149.385Z" fill="#ED975D"/>
<path d="M158.609 149.157C158.609 149.157 141.916 151.934 140.348 141.497C138.78 131.06 135.571 124.387 146.163 122.177C156.756 119.968 159.441 123.615 160.798 126.976C162.155 130.336 162.908 148.165 158.609 149.157Z" fill="#FBC6B4"/>
<path d="M175.267 259.786C174.972 260.043 174.595 260.187 174.204 260.19C170.408 260.138 159.344 262.248 149.975 261.286C142.082 260.527 135.093 258.186 127.588 254.816C126.598 254.37 124.299 253.145 124.351 252.029C124.384 250.809 124.505 249.039 124.659 246.807C125.189 239.053 126.115 225.712 125.211 210.325C125.05 207.458 124.963 204.621 124.963 201.817C124.886 180.96 129.017 162.614 137.317 156.408C138.025 155.912 142.379 158.029 146.377 160.003C150.072 161.828 153.767 162.029 157.259 161.322L160.749 164.412C165.001 168.365 169.665 173.736 171.683 181.894C173.417 188.838 174.407 201.356 174.972 214.327C175.22 220.207 175.428 226.136 175.48 231.762V231.963C175.529 232.521 175.529 233.129 175.529 233.699C175.723 248.129 175.52 259.58 175.267 259.786Z" fill="#9BB5FF"/>
<path d="M124.658 246.807C125.188 239.053 126.114 225.712 125.21 210.325C125.05 207.458 124.963 204.621 124.963 201.817C128.43 193.42 131.246 187.33 131.246 187.33H139.962C139.962 187.33 146.341 231.026 124.658 246.807Z" fill="#7FA0FF"/>
<path d="M80.0162 296.33L117.184 301.632C119.517 301.959 121.884 301.349 123.769 299.934C125.654 298.519 126.903 296.415 127.244 294.081L129.54 277.962C129.864 275.628 129.253 273.26 127.84 271.375C126.427 269.49 124.327 268.24 121.998 267.9L84.8284 262.598C82.4973 262.274 80.1328 262.886 78.2506 264.3C76.3683 265.715 75.121 267.817 74.7805 270.149L72.4846 286.267C72.1602 288.6 72.7698 290.967 74.1805 292.851C75.5913 294.736 77.6888 295.987 80.0162 296.33Z" fill="#233862"/>
<path d="M124.086 272.7C123.56 271.378 122.727 270.2 121.656 269.263C120.585 268.327 119.306 267.66 117.927 267.317C117.643 267.246 117.356 267.19 117.067 267.151L109.659 266.089L110.155 262.618C110.263 261.844 110.061 261.059 109.593 260.435C109.124 259.81 108.428 259.397 107.656 259.285L105.727 259.01L97.9547 257.901L96.5529 257.7C95.7806 257.591 94.9966 257.793 94.373 258.263C93.7494 258.732 93.3372 259.429 93.2268 260.202L92.7314 263.674L79.9567 261.851C77.6174 261.525 75.2438 262.137 73.354 263.556C71.4642 264.975 70.2115 267.084 69.8693 269.425L67.5486 285.741C67.2224 288.084 67.8352 290.461 69.2533 292.353C70.6714 294.245 72.7795 295.498 75.1173 295.839L112.22 301.133C112.861 301.225 113.51 301.246 114.155 301.195C115.155 301.115 116.134 300.863 117.05 300.451C118.439 299.841 119.651 298.886 120.569 297.677C121.488 296.467 122.084 295.044 122.3 293.54L124.624 277.226C124.841 275.696 124.656 274.136 124.086 272.7ZM95.0471 260.455C95.0808 260.223 95.1873 260.008 95.3511 259.841C95.515 259.674 95.7277 259.563 95.9585 259.525C96.0685 259.508 96.1805 259.508 96.2904 259.525L97.9399 259.758L104.057 260.634L107.391 261.11C107.679 261.151 107.938 261.305 108.113 261.537C108.288 261.769 108.364 262.062 108.325 262.35L107.829 265.821L94.5518 263.934L95.0471 260.455Z" fill="#2B478B"/>
<path d="M108.28 248.309C108.28 248.309 106.328 250.911 106.249 251.952C105.726 259.002 108.944 259.977 100.612 263.895C100.612 263.895 97.0556 265.251 96.9961 262.489C96.9367 259.726 99.4728 259.679 99.0022 255.808C98.4673 251.345 98.5218 251.302 101.449 248.971L103.386 245.765L108.28 248.309Z" fill="#FBC6B4"/>
<path d="M103.317 250.303C106.455 250.916 109.855 250.668 109.855 250.668C109.855 250.668 119.172 221.851 120.371 219.22C121.57 216.589 148.048 185.431 148.048 185.431L137.017 157.794C137.017 157.794 108.381 205.695 105.474 212.415C100.669 223.534 99.0098 248.468 99.0098 248.468C100.311 249.357 101.775 249.981 103.317 250.303Z" fill="#9BB5FF"/>
<path d="M140.333 140.478C140.333 140.478 142.047 140.193 141.77 137.829C141.492 135.466 141.497 132.374 143.417 132.954C145.336 133.534 145.43 135.067 146.218 134.169C147.005 133.272 147.02 129.487 152.729 129.225C158.438 128.962 160.758 130.96 163.413 129.78C166.068 128.6 166.207 124.59 166.207 124.59C166.207 124.59 165.452 126.026 164.312 126.482C164.312 126.482 168.741 120.419 163.614 116.258C158.487 112.097 153.259 114.822 150.29 115.003C143.751 115.4 139.528 115.792 137.393 120.094C135.259 124.397 136.138 136.341 140.333 140.478Z" fill="#2B478B"/>
<path d="M105.201 251.409C105.201 251.409 107.081 253.371 107.198 254.187C107.579 256.808 108.453 257.938 108.015 258.223C107.106 258.816 105.9 256.877 105.325 255.136C104.751 253.395 105.201 251.409 105.201 251.409Z" fill="#FBC6B4"/>
<path d="M561.492 123.301C561.492 123.301 566.477 123.301 571.646 126.599C575.703 129.19 584.876 142.303 587.898 150.104C590.919 157.905 584.621 161.283 589.121 165.761C593.579 170.185 599.645 182.666 589.334 188.796C583.509 192.267 573.144 181.552 566.487 180.04C559.83 178.527 542.013 192.272 537.327 187.95C532.641 183.628 527.948 176.206 542.032 166.808C545.668 164.38 529.649 162.863 536.507 145.465C541.218 133.47 549.621 122.958 561.492 123.301Z" fill="#163560"/>
<path d="M510.843 198.608C510.843 198.432 513.409 193.12 512.594 192.711C511.779 192.302 510.313 192.364 510.145 193.294C509.976 194.224 510.843 198.608 510.843 198.608Z" fill="#C98789"/>
<path d="M549.157 132.565C549.157 132.565 561.719 119.896 569.686 131.481C569.686 131.481 574.608 130.05 576.757 140.18C578.952 150.516 575.598 156.834 572.052 154.893C569.776 153.653 568.052 157.638 568.052 157.638L549.157 132.565Z" fill="#163560"/>
<path d="M530.491 228.923C518.526 224.509 507.002 204.006 507.002 204.006L510.776 201.363C513.919 205.965 528.059 214.803 528.059 214.803C528.381 210.925 528.849 207.406 529.428 204.217C533.354 182.552 542.334 176.134 544.744 174.77C544.94 174.655 545.142 174.553 545.351 174.463C545.351 174.463 545.351 174.621 545.326 174.924C545.291 175.576 545.215 176.89 545.078 178.691C544.155 192.106 540.489 232.613 530.491 228.923Z" fill="#C98789"/>
<path d="M588.321 251.045C582.409 237.773 579.581 234.019 579.482 229.843C579.405 226.54 581.03 222.976 584.188 214.24C584.922 212.193 585.449 210.077 585.76 207.924C588.259 191.079 578.489 172.647 572.443 171.407C569.83 170.775 567.951 165.099 567.985 155.289L567.227 155.438L554.497 157.962C554.497 157.962 554.787 161.974 554.795 165.754C554.795 168.903 555.327 172.218 553.9 172.265C552.984 172.347 552.444 172.402 552.444 172.402C552.444 172.402 541.839 187.171 540.938 200.899C540.036 214.627 549.437 220.593 540.866 248.029C532.113 276.05 591.586 258.38 588.321 251.045Z" fill="#C98789"/>
<path d="M554.5 157.97C554.5 157.97 554.79 161.982 554.797 165.761C561.922 165.56 565.694 159.054 567.23 155.446L554.5 157.97Z" fill="#AE4D50"/>
<path d="M568.545 154.059C568.545 154.059 572.28 148.152 573.177 143.101C573.816 139.496 571.98 126.13 558.564 128.054C555.862 128.429 553.278 129.407 551.003 130.916C548.09 132.885 543.887 137.137 548.586 148.8L549.807 152.74L568.545 154.059Z" fill="#163560"/>
<path d="M552.12 161.556C552.12 161.556 568.976 161.836 568.988 151.322C569.001 140.807 571.183 133.765 560.421 133.143C549.66 132.52 547.562 136.527 546.706 140.036C545.849 143.545 547.736 161.206 552.12 161.556Z" fill="#C98789"/>
<path d="M552.736 132.877C552.736 132.877 557.35 145.211 564.434 147.034C571.517 148.857 574.588 146.957 574.588 146.957C574.588 146.957 569.154 142.637 568.027 135.094C568.037 135.094 556.223 127.005 552.736 132.877Z" fill="#163560"/>
<path d="M553.888 133.879C552.179 135.023 550.726 136.51 549.621 138.246C548.083 140.592 546.549 142.675 546.777 147.319C546.777 147.319 543.31 138.935 547.208 134.194C551.352 129.155 553.888 133.879 553.888 133.879Z" fill="#163560"/>
<path d="M573.394 378.412C569.154 395.304 562.769 408.253 562.769 408.253L557.211 407.867C557.211 407.867 559.935 394.883 559.779 377.338C559.67 365.073 558.155 350.577 553.315 336.737C536.682 289.176 539.369 254.561 539.369 254.561L570.647 258.224L572.106 258.395C572.235 272.777 572.601 292.305 572.931 307.576C573.218 321.308 573.47 331.594 573.47 331.594C579.484 344.561 577.299 362.867 573.394 378.412Z" fill="#2B478B"/>
<path d="M581.622 407.358C581.622 407.358 589.542 394.932 591.34 375.714C594.786 352.896 588.607 339.158 585.087 335.141C585.973 330.37 591.907 297.424 591.073 272.155C590.741 262.144 589.351 253.339 586.161 247.97L554.46 249.545C554.46 249.545 557.598 323.58 568.03 343.192C570.657 348.132 572.981 364.335 574.675 379.645C576.453 395.753 578.967 409.292 578.967 409.292L581.622 407.358Z" fill="#233862"/>
<path d="M610.245 265.144L605.183 266.664C605.183 266.664 588.49 238.931 586.972 231.715C586.476 229.367 585.263 224.665 583.846 219.398C580.916 208.487 577.132 195.141 577.132 195.141L575.893 189.738L571.644 171.313C571.644 171.313 579.782 172.146 584.54 174.138C586.117 174.797 587.318 175.583 587.739 176.506C591.234 184.193 594.726 203.629 597.178 217.486C598.545 225.211 599.588 231.204 600.133 232.474C601.643 236.02 606.282 255.521 610.245 265.144Z" fill="#C98789"/>
<path d="M592.296 260.629C592.351 261.698 592.296 262.553 592.098 263.166C591.424 265.291 589.106 266.261 583.504 265.68C580.081 265.323 578.551 259.578 577.872 254.678C575.816 261.69 572.931 265.615 569.216 266.451C563.785 267.662 536.388 270.997 534.595 257.956C532.613 243.615 538.527 218.22 538.852 204.527C538.125 200.338 537.793 196.09 537.861 191.838C538.089 182.085 541.227 176.419 543.426 174.217C547.31 172.729 553.472 172.295 553.449 172.333C552.984 173.161 551.416 177.967 551.676 180.419C552.486 188.034 560.332 187.211 567.232 182.606C572.332 179.204 575.214 171.79 575.214 171.79C575.214 171.79 585.394 172.62 587.779 176.523C592.346 183.992 595.907 203.84 598.763 217.796C591.84 221.615 585.792 220.479 583.915 219.974C586.367 236.047 591.93 253.306 592.296 260.629Z" fill="#9BB5FF"/>
<path d="M510.777 201.363C510.777 200.842 511.213 193.301 509.873 191.719C508.533 190.137 505.794 187.883 504.934 187.952C504.075 188.022 500.707 192.5 501.715 195.932C502.723 199.364 506.998 204.006 506.998 204.006L510.777 201.363Z" fill="#C98789"/>
<path d="M516.921 192.141L509.12 194.482C508.995 194.517 508.862 194.503 508.748 194.442C508.635 194.381 508.549 194.278 508.51 194.154L504.052 179.256C504.017 179.131 504.031 178.998 504.093 178.884C504.154 178.77 504.258 178.685 504.382 178.646L512.183 176.305C512.307 176.269 512.44 176.284 512.554 176.345C512.668 176.406 512.754 176.509 512.792 176.633L517.25 191.531C517.286 191.655 517.271 191.789 517.21 191.903C517.148 192.017 517.045 192.102 516.921 192.141Z" fill="#F1A34F"/>
<path d="M514.895 192.748L507.817 194.874C507.707 194.906 507.593 194.917 507.48 194.906C507.366 194.894 507.256 194.86 507.156 194.806C507.056 194.752 506.967 194.679 506.895 194.59C506.823 194.502 506.769 194.4 506.737 194.291L502.494 180.119C502.461 180.01 502.45 179.895 502.461 179.782C502.473 179.668 502.506 179.558 502.561 179.457C502.615 179.357 502.688 179.268 502.777 179.196C502.865 179.124 502.967 179.07 503.076 179.038L510.155 176.913C510.375 176.847 510.612 176.872 510.815 176.981C511.017 177.09 511.168 177.275 511.234 177.496L515.477 191.667C515.542 191.888 515.518 192.126 515.409 192.328C515.3 192.531 515.115 192.682 514.895 192.748Z" fill="#D86713"/>
<path d="M565.972 412.92H562.423C561.234 412.732 560.355 412.387 559.136 412.228C557.286 411.98 556.432 412.744 556.263 412.92L556.231 412.955H541.156C540.777 412.414 541.141 411.157 541.498 410.227C541.617 409.918 541.806 409.64 542.051 409.416C542.295 409.191 542.588 409.027 542.907 408.935C544.507 408.471 547.657 408.06 550.545 405.444C552.17 403.976 558.386 400.043 558.386 400.043H558.418C558.554 400.043 559.206 400.244 562.034 402.634C563.495 403.874 565.997 400.898 565.997 400.898C566.339 401.211 566.617 401.587 566.814 402.007C567.166 402.725 567.279 403.538 567.136 404.325C566.913 405.684 567.631 408.211 568.218 409.922C568.568 410.956 568.865 411.693 568.865 411.693C568.865 411.693 569.023 412.538 565.972 412.92Z" fill="#1A2D4C"/>
<path d="M566.804 401.999C565.957 402.597 564.169 403.775 562.982 403.929C561.38 404.139 558.386 400.048 558.386 400.048H558.418C558.554 400.048 559.206 400.249 562.034 402.639C563.495 403.879 565.997 400.903 565.997 400.903C566.334 401.213 566.608 401.585 566.804 401.999Z" fill="#466AA5"/>
<path d="M565.972 412.92H562.423C561.234 412.732 560.355 412.387 559.136 412.228C557.286 411.98 556.432 412.744 556.263 412.92L556.231 412.955H541.156C540.777 412.414 541.141 411.157 541.498 410.227C541.953 409.82 542.085 411.998 542.337 412.345C542.59 412.692 554.634 412.471 555.33 411.965C556.026 411.46 558.114 410.572 561.026 411.269C563.557 411.874 567.29 410.321 568.208 409.91C568.558 410.944 568.855 411.68 568.855 411.68C568.855 411.68 569.023 412.538 565.972 412.92Z" fill="#3B6096"/>
<path d="M584.909 412.92H581.36C580.171 412.732 579.294 412.387 578.075 412.228C576.223 411.98 575.371 412.744 575.203 412.92L575.168 412.955H560.092C559.713 412.414 560.077 411.157 560.434 410.227C560.554 409.917 560.744 409.64 560.989 409.416C561.234 409.191 561.527 409.027 561.846 408.935C563.443 408.471 566.596 408.06 569.481 405.444C571.106 403.976 577.323 400.043 577.323 400.043H577.357C577.493 400.043 578.142 400.244 580.971 402.634C582.432 403.874 584.933 400.898 584.933 400.898C585.276 401.211 585.553 401.587 585.751 402.007C586.103 402.725 586.217 403.538 586.075 404.325C585.85 405.684 586.57 408.211 587.155 409.922C587.507 410.956 587.801 411.693 587.801 411.693C587.801 411.693 587.962 412.538 584.909 412.92Z" fill="#233862"/>
<path d="M585.741 401.999C584.894 402.597 583.105 403.775 581.919 403.929C580.319 404.139 577.322 400.048 577.322 400.048H577.357C577.493 400.048 578.142 400.249 580.97 402.639C582.432 403.879 584.933 400.903 584.933 400.903C585.27 401.213 585.545 401.585 585.741 401.999Z" fill="#466AA5"/>
<path d="M584.909 412.92H581.36C580.171 412.732 579.294 412.387 578.075 412.228C576.223 411.98 575.371 412.744 575.203 412.92L575.168 412.955H560.092C559.713 412.414 560.077 411.157 560.434 410.227C560.892 409.82 561.021 411.998 561.274 412.345C561.526 412.692 573.573 412.471 574.269 411.965C574.965 411.46 577.05 410.572 579.965 411.269C582.496 411.874 586.226 410.321 587.147 409.91C587.499 410.944 587.794 411.68 587.794 411.68C587.794 411.68 587.962 412.538 584.909 412.92Z" fill="#466AA5"/>
<path d="M592.296 260.629C588.45 254.561 586.196 247.216 583.185 238.807C575.425 217.144 576.602 205.306 578.479 204.869C580.356 204.433 583.908 219.974 583.908 219.974C586.367 236.047 591.93 253.306 592.296 260.629Z" fill="#7599FF"/>
<path d="M540.524 207.133C539.927 207.099 539.334 207.009 538.753 206.866C538.624 206.836 538.493 206.801 538.364 206.764C536.889 206.315 535.502 205.618 534.26 204.703C531.685 202.861 528.834 199.699 528.834 199.699C533.852 177.332 543.424 174.22 543.424 174.22C543.424 174.22 546.478 207.451 540.524 207.133Z" fill="#9BB5FF"/>
<path d="M504.129 188.53C504.129 188.53 507.378 183.526 508.171 183.804C509.305 184.201 505.226 190.554 505.226 190.554C505.226 190.554 508.248 185.808 508.721 186.162C509.796 186.978 508.084 189.959 506.385 192.245C506.385 192.245 509.426 189.458 509.523 189.961C509.872 191.719 506.187 195.979 506.187 195.979L504.129 191.268V188.53Z" fill="#C98789"/>
<path d="M501.692 193.177C501.848 192.567 502.641 180.612 502.983 181.746C503.325 182.879 504.129 189.148 504.129 189.148L501.692 193.177Z" fill="#C98789"/>
<path d="M575.346 198.834L581.552 221.427C581.552 221.427 594.48 222.319 598.76 217.796L590.939 197.681L575.346 198.834Z" fill="#9BB5FF"/>
<path d="M538.753 206.865C538.625 206.836 538.493 206.801 538.365 206.764C536.89 206.315 535.502 205.618 534.261 204.703C534.62 203.875 535.138 203.126 535.786 202.499C537.302 201.085 538.555 195.33 539.08 195.803C539.605 196.277 538.753 206.865 538.753 206.865Z" fill="#7599FF"/>
<path d="M610.244 265.145C610.244 265.145 616.349 269.206 617.283 270.92C618.217 272.633 620.394 278.939 620.394 278.939C620.394 278.939 618.839 279.172 617.283 276.46C615.728 273.747 610.596 273.98 608.885 272.492C607.173 271.004 605.182 266.68 605.182 266.68L610.244 265.145Z" fill="#C98789"/>
<path d="M605.846 268.004C605.846 268.004 606.862 272.79 608.107 274.203C609.353 275.617 611.062 277.94 611.76 277.318C612.459 276.695 610.983 271.478 610.983 271.478L605.846 268.004Z" fill="#C98789"/>
<path d="M616.426 271.465C616.582 271.699 621.949 277.417 621.949 277.417C621.949 277.417 620.005 278.297 619.46 277.417C618.915 276.537 616.426 271.465 616.426 271.465Z" fill="#C98789"/>
<path d="M455.468 74.3032V391.711C455.468 394.19 454.981 396.645 454.033 398.935C453.086 401.225 451.697 403.307 449.947 405.06C448.196 406.813 446.118 408.203 443.83 409.152C441.543 410.101 439.091 410.589 436.615 410.589H270.891C268.415 410.589 265.963 410.101 263.675 409.153C261.387 408.204 259.309 406.814 257.558 405.061C255.807 403.307 254.418 401.226 253.471 398.936C252.523 396.645 252.036 394.19 252.036 391.711V74.3032C252.035 71.8237 252.523 69.3685 253.47 67.0776C254.417 64.7867 255.806 62.7052 257.557 60.9518C259.308 59.1985 261.387 57.8077 263.675 56.859C265.963 55.9102 268.415 55.422 270.891 55.4224H436.608C439.085 55.4214 441.537 55.9091 443.826 56.8575C446.114 57.806 448.194 59.1967 449.945 60.9501C451.696 62.7035 453.086 64.7853 454.033 67.0765C454.981 69.3676 455.468 71.8233 455.468 74.3032Z" fill="#AFCDFB"/>
<path d="M439.649 211.151C439.643 224.737 436.425 238.13 430.257 250.233C424.09 262.335 415.148 272.804 404.164 280.782C403.757 281.079 403.349 281.374 402.925 281.657C390.706 290.191 376.482 295.4 361.646 296.773C346.811 298.146 331.874 295.636 318.3 289.488C316.962 288.88 315.642 288.237 314.337 287.559C300.347 280.305 288.616 269.343 280.425 255.868C272.234 242.394 267.898 226.925 267.89 211.151C267.89 163.666 306.338 125.168 353.771 125.168C401.204 125.168 439.649 163.668 439.649 211.151Z" fill="white"/>
<path d="M426.02 257.656C420.225 266.651 412.814 274.493 404.164 280.784C403.757 281.082 403.349 281.377 402.925 281.66C392.716 279.676 380.333 266.635 369.825 261.147C368.115 260.218 366.295 259.51 364.408 259.039C358.313 257.656 347.666 262.494 336.882 267.5C330.443 270.476 323.969 273.529 318.374 275.354L318.228 275.403C313.186 277.032 308.871 277.655 305.974 276.326C305.41 276.072 304.891 275.73 304.436 275.312C302.43 273.495 300.613 271.48 299.012 269.298C292.491 260.22 290.881 247.328 314.104 231.824C321.582 226.835 287.735 228.489 301.833 192.706C311.551 168.04 329.74 141.643 354.155 142.345C354.155 142.345 364.408 142.345 375.021 149.13C383.362 154.459 395.272 178.708 401.486 194.757C407.7 210.806 395.557 220.973 405.355 229.6C415.584 238.591 424.106 248.419 426.02 257.656Z" fill="#163560"/>
<path d="M328.822 161.308C328.822 161.308 354.659 135.25 371.047 159.076C371.047 159.076 381.167 156.13 385.588 176.965C390.1 198.224 383.203 211.217 375.904 207.218C371.22 204.656 367.676 212.862 367.676 212.862L328.822 161.308Z" fill="#163560"/>
<path d="M404.163 280.784C403.757 281.082 403.349 281.377 402.925 281.66C390.706 290.194 376.481 295.403 361.646 296.776C346.811 298.148 331.874 295.638 318.3 289.491C316.962 288.882 315.641 288.239 314.337 287.562C315.41 283.54 316.709 279.582 318.23 275.708C318.275 275.592 318.322 275.475 318.369 275.359C325.405 257.405 335.572 243.271 335.572 243.271H335.626C335.643 243.269 335.659 243.269 335.676 243.271H335.768H335.872C335.916 243.271 335.963 243.271 336.015 243.256C336.156 243.256 336.335 243.229 336.538 243.204C336.602 243.204 336.662 243.189 336.726 243.187L336.889 243.172L337.048 243.157H337.169H337.296L338.561 243.04C341.823 242.49 340.419 236.129 340.401 229.65C340.401 228.191 340.372 226.719 340.337 225.283L340.315 224.571C340.315 224.355 340.315 224.142 340.297 223.934C340.28 223.725 340.297 223.562 340.28 223.381C340.28 223.311 340.28 223.239 340.28 223.172C340.28 222.714 340.248 222.262 340.231 221.821C340.231 221.452 340.203 221.094 340.188 220.747C340.114 219.076 340.037 217.588 339.97 216.41L339.948 216.016C339.947 216.004 339.947 215.993 339.948 215.981C339.948 215.899 339.948 215.822 339.933 215.733C339.933 215.542 339.909 215.361 339.899 215.195C339.899 215.076 339.884 214.967 339.876 214.86C339.869 214.754 339.861 214.583 339.852 214.464C339.853 214.445 339.853 214.426 339.852 214.407C339.84 214.218 339.83 214.062 339.822 213.938C339.822 213.896 339.822 213.859 339.822 213.821L339.807 213.613L364.509 208.671L365.995 208.378L367.551 208.071V208.088C367.551 209.717 367.573 211.292 367.625 212.812C368.224 230.069 372.378 240.072 375.55 240.91C376.747 241.52 379.424 241.865 382.007 242.167C384.731 242.482 387.342 242.755 388.053 243.241C395.584 248.347 401.659 263.017 404.163 280.784Z" fill="#C98789"/>
<path d="M339.81 213.568C339.81 213.568 340.404 221.821 340.421 229.592C355.076 229.181 362.82 215.795 365.995 208.378L339.81 213.568Z" fill="#AE4D50"/>
<path d="M368.699 205.524C368.699 205.524 376.377 193.373 378.22 182.988C379.535 175.571 375.763 148.081 348.173 152.041C342.616 152.813 337.304 154.824 332.627 157.925C326.638 161.975 317.992 170.721 327.658 194.71L330.17 202.814L368.699 205.524Z" fill="#163560"/>
<path d="M334.915 220.931C334.915 220.931 369.589 221.503 369.608 199.88C369.628 178.257 374.121 163.77 351.987 162.488C329.853 161.206 325.544 169.456 323.783 176.67C322.022 183.883 325.898 220.224 334.915 220.931Z" fill="#C98789"/>
<path d="M336.198 161.96C336.198 161.96 345.691 187.328 360.257 191.077C374.822 194.826 381.145 190.921 381.145 190.921C381.145 190.921 369.97 182.033 367.652 166.518C367.652 166.515 343.358 149.886 336.198 161.96Z" fill="#163560"/>
<path d="M338.552 164.018C338.552 164.018 333.777 166.872 329.774 172.982C326.612 177.808 323.459 182.09 323.929 191.645C323.929 191.645 316.777 174.401 324.814 164.648C333.336 154.305 338.552 164.018 338.552 164.018Z" fill="#163560"/>
<path d="M408.252 251.724C402.061 243.457 382.02 242.157 382.02 242.157C381.871 242.554 377.685 253.698 369.837 261.137C368.648 262.275 367.365 263.309 366 264.227C354.855 271.666 342.472 274.312 336.895 267.49C335.379 265.633 334.358 263.076 334.002 259.729C333.469 254.683 336.696 244.803 337.647 243.097C337.662 243.075 337.529 243.08 337.323 243.097H337.197H337.075L336.917 243.112L336.753 243.127C336.689 243.127 336.63 243.127 336.565 243.144C336.382 243.159 336.199 243.179 336.043 243.196C335.991 243.196 335.944 243.196 335.899 243.211H335.795H335.703C335.687 243.209 335.67 243.209 335.654 243.211H335.599C330.443 243.891 320.095 245.016 316.472 247.34C316.264 247.447 307.098 252.238 299.039 269.241C298.175 271.06 297.327 273.029 296.495 275.148C301.906 280.009 307.912 284.161 314.369 287.504C315.67 288.181 316.991 288.824 318.332 289.434C331.906 295.581 346.843 298.091 361.678 296.718C376.514 295.346 390.738 290.137 402.957 281.603C403.373 281.32 403.782 281.025 404.196 280.727C408.627 277.508 412.741 273.873 416.482 269.871C414.043 262.246 411.346 255.86 408.252 251.724Z" fill="#9BB5FF"/>
<path d="M297.577 168.576H293.404V155.795H307.308V159.971H297.577V168.576Z" fill="#C7DCFA"/>
<path d="M411.37 169.146H407.197V159.401H398.605V155.225H411.37V169.146Z" fill="#C7DCFA"/>
<path d="M411.371 250.487H397.467V246.311H407.198V237.708H411.371V250.487Z" fill="#C7DCFA"/>
<path d="M306.169 251.057H293.404V237.138H297.577V246.881H306.169V251.057Z" fill="#C7DCFA"/>
<path d="M426.302 381.403V409.553C426.302 409.897 426.302 410.245 426.282 410.584H282.308C282.294 410.245 282.286 409.897 282.286 409.553V381.403C282.286 368.56 290.566 358.053 300.683 358.053H407.905C418.023 358.053 426.302 368.56 426.302 381.403Z" fill="#2B478B"/>
<path d="M436.612 412.955H270.891C265.264 412.948 259.87 410.707 255.891 406.724C251.913 402.74 249.675 397.339 249.668 391.706V74.2982C249.676 68.6655 251.914 63.2658 255.893 59.2834C259.871 55.3009 265.265 53.0608 270.891 53.0542H436.605C442.231 53.0608 447.626 55.3016 451.604 59.2851C455.583 63.2687 457.821 68.6696 457.827 74.3032V391.711C457.819 397.342 455.582 402.741 451.605 406.723C447.628 410.705 442.237 412.946 436.612 412.955ZM270.891 57.7955C266.519 57.8001 262.328 59.5407 259.237 62.6354C256.145 65.7301 254.406 69.9262 254.401 74.3032V391.711C254.407 396.087 256.147 400.282 259.238 403.376C262.329 406.47 266.52 408.211 270.891 408.216H436.605C440.976 408.211 445.168 406.47 448.259 403.375C451.35 400.279 453.089 396.083 453.094 391.706V74.2982C453.089 69.9213 451.35 65.7251 448.259 62.6304C445.167 59.5357 440.976 57.7951 436.605 57.7905L270.891 57.7955Z" fill="#2B478B"/>
<path d="M353.456 391.512L344.188 383.205L346.791 380.292L352.778 385.658L361.062 373.792L364.262 376.031L353.456 391.512Z" fill="white"/>
<path d="M354.226 400.311C350.738 400.311 347.328 399.275 344.428 397.335C341.528 395.395 339.267 392.637 337.932 389.41C336.597 386.183 336.248 382.633 336.929 379.208C337.609 375.782 339.289 372.636 341.755 370.166C344.222 367.697 347.364 366.015 350.786 365.333C354.207 364.652 357.753 365.002 360.975 366.338C364.198 367.675 366.952 369.938 368.89 372.842C370.828 375.746 371.863 379.16 371.863 382.652C371.858 387.334 369.998 391.823 366.692 395.134C363.386 398.444 358.902 400.306 354.226 400.311ZM354.226 365.703C350.877 365.703 347.604 366.697 344.819 368.559C342.035 370.422 339.864 373.069 338.582 376.167C337.301 379.264 336.965 382.673 337.618 385.961C338.272 389.25 339.884 392.271 342.252 394.642C344.62 397.012 347.637 398.627 350.921 399.281C354.206 399.935 357.61 399.599 360.704 398.316C363.798 397.032 366.442 394.859 368.302 392.071C370.162 389.283 371.155 386.005 371.154 382.652C371.149 378.159 369.364 373.851 366.19 370.673C363.017 367.496 358.714 365.709 354.226 365.703Z" fill="white"/>
<path d="M421.646 316.741H288.144V317.936H421.646V316.741Z" fill="#EBF3FA"/>
<path d="M283.77 317.341C283.77 316.475 284.026 315.629 284.506 314.909C284.987 314.189 285.669 313.628 286.468 313.297C287.267 312.966 288.146 312.879 288.994 313.048C289.842 313.217 290.621 313.634 291.232 314.246C291.843 314.858 292.26 315.638 292.428 316.487C292.597 317.336 292.51 318.216 292.179 319.016C291.849 319.815 291.288 320.499 290.569 320.98C289.851 321.461 289.005 321.718 288.141 321.718C286.982 321.718 285.87 321.256 285.05 320.436C284.23 319.615 283.77 318.502 283.77 317.341Z" fill="#2B478B"/>
<path d="M349.035 317.341C349.035 316.18 349.379 315.045 350.023 314.08C350.667 313.114 351.583 312.362 352.654 311.918C353.725 311.474 354.904 311.357 356.041 311.584C357.178 311.81 358.223 312.369 359.043 313.19C359.863 314.011 360.421 315.057 360.647 316.196C360.873 317.334 360.757 318.514 360.314 319.587C359.87 320.659 359.118 321.576 358.154 322.221C357.19 322.866 356.057 323.21 354.897 323.21C353.343 323.21 351.852 322.592 350.752 321.491C349.653 320.39 349.035 318.897 349.035 317.341Z" fill="#2B478B"/>
<path d="M417.277 317.341C417.277 316.475 417.534 315.629 418.014 314.909C418.494 314.189 419.177 313.628 419.976 313.297C420.775 312.966 421.653 312.879 422.501 313.048C423.349 313.217 424.128 313.634 424.74 314.246C425.351 314.858 425.767 315.638 425.936 316.487C426.105 317.336 426.018 318.216 425.687 319.016C425.356 319.815 424.796 320.499 424.077 320.98C423.358 321.461 422.513 321.718 421.649 321.718C421.075 321.718 420.506 321.604 419.976 321.384C419.445 321.164 418.964 320.842 418.558 320.436C418.152 320.029 417.83 319.547 417.61 319.016C417.39 318.485 417.277 317.916 417.277 317.341Z" fill="#EBF3FA"/>
<path d="M354.803 316.741H288.144V317.936H354.803V316.741Z" fill="#2B478B"/>
<path d="M706.491 412.955H1.02039C0.456844 412.955 0 413.412 0 413.976V414.978C0 415.543 0.456844 416 1.02039 416H706.491C707.054 416 707.511 415.543 707.511 414.978V413.976C707.511 413.412 707.054 412.955 706.491 412.955Z" fill="#2E3552"/>
</g>
<defs>
<clipPath id="clip0">
<rect width="710" height="416" fill="white"/>
</clipPath>
</defs>
</svg>
