<svg width="580" height="900" viewBox="0 0 580 900" fill="none" xmlns="http://www.w3.org/2000/svg">
<path d="M0 0H560C571.046 0 580 8.95431 580 20V900H0V0Z" fill="#EBF3FA"/>
<path d="M295.351 229.362L258.126 250.849C258.33 249.24 258.443 247.62 258.466 245.999V235.134C258.466 215.733 244.974 208.167 228.375 217.77C221.226 222.159 215.102 228.031 210.418 234.989C207.7 210.738 188.772 201.91 165.768 215.151C140.918 229.702 120.777 264.381 120.777 293.094V309.197C120.604 315.633 121.916 322.022 124.611 327.87L93.6955 345.719C88.8077 348.904 84.7458 353.203 81.8434 358.262C78.9411 363.321 77.2812 368.996 77 374.821C77 385.443 84.4742 389.759 93.6955 384.521L295.351 268.116C300.239 264.931 304.301 260.632 307.204 255.573C310.106 250.514 311.766 244.839 312.047 239.014C311.95 228.344 304.573 223.833 295.351 229.362Z" fill="#CEDBFF"/>
<g clip-path="url(#clip0_23:521)">
<path d="M152.641 624.04C128.236 624.04 108.451 612.619 108.451 598.53C108.451 584.441 128.236 573.02 152.641 573.02C177.047 573.02 196.831 584.441 196.831 598.53C196.831 612.619 177.047 624.04 152.641 624.04Z" fill="#E0E0E0"/>
<path d="M180.361 270.13L172.691 274.56C172.733 274.228 172.757 273.894 172.761 273.56V271.32C172.761 267.32 169.981 265.76 166.561 267.74C165.088 268.645 163.826 269.856 162.861 271.29C162.301 266.29 158.401 264.47 153.661 267.2C148.541 270.2 144.391 277.35 144.391 283.27V286.59C144.356 287.917 144.626 289.234 145.181 290.44L138.811 294.12C137.804 294.777 136.967 295.663 136.369 296.706C135.771 297.749 135.429 298.919 135.371 300.12C135.371 302.31 136.911 303.2 138.811 302.12L180.361 278.12C181.368 277.463 182.205 276.577 182.803 275.534C183.401 274.491 183.743 273.321 183.801 272.12C183.781 269.92 182.261 268.99 180.361 270.13Z" fill="white"/>
<path d="M213.181 292.47L207.391 295.81C207.422 295.558 207.439 295.304 207.441 295.05V293.37C207.441 290.37 205.341 289.18 202.761 290.67C201.648 291.351 200.696 292.265 199.971 293.35C199.551 289.6 196.611 288.2 193.031 290.26C190.993 291.589 189.297 293.381 188.081 295.488C186.865 297.596 186.163 299.96 186.031 302.39V304.9C186.004 305.899 186.206 306.891 186.621 307.8L181.821 310.58C181.065 311.071 180.436 311.734 179.984 312.514C179.532 313.294 179.271 314.17 179.221 315.07C179.221 316.73 180.381 317.4 181.821 316.57L213.181 298.46C213.935 297.971 214.563 297.311 215.014 296.535C215.466 295.759 215.729 294.887 215.781 293.99C215.781 292.31 214.611 291.64 213.181 292.47Z" fill="white"/>
<path d="M469.901 481.61C470.471 481.92 480.901 484.89 484.801 479.77C488.701 474.65 482.251 466.68 485.881 463.77C489.511 460.86 499.691 463.77 502.141 457.6C504.591 451.43 497.331 448.75 501.411 442.52C503.981 438.6 510.301 436.4 510.851 432.77C511.791 426.71 501.741 423.92 493.141 429.65C484.541 435.38 479.351 432.75 476.621 432.36C473.891 431.97 468.021 432.83 468.211 442.36C468.401 451.89 469.901 481.61 469.901 481.61Z" fill="#ABDDDA"/>
<path d="M469.211 467.99C469.347 467.991 469.478 467.943 469.581 467.855C469.684 467.767 469.752 467.644 469.771 467.51C472.771 449.35 493.881 434.56 504.861 431.39C504.934 431.371 505.003 431.336 505.063 431.29C505.122 431.243 505.172 431.185 505.208 431.118C505.245 431.052 505.267 430.979 505.275 430.904C505.282 430.828 505.274 430.752 505.251 430.68C505.231 430.609 505.196 430.542 505.15 430.485C505.103 430.427 505.046 430.379 504.981 430.344C504.916 430.308 504.844 430.286 504.77 430.279C504.697 430.271 504.622 430.279 504.551 430.3C493.321 433.54 471.721 448.69 468.651 467.3C468.628 467.448 468.665 467.6 468.753 467.722C468.841 467.843 468.973 467.925 469.121 467.95L469.211 467.99Z" fill="white"/>
<path d="M494.111 452.79C494.237 452.794 494.361 452.756 494.462 452.682C494.564 452.607 494.637 452.501 494.671 452.379C494.704 452.258 494.696 452.129 494.647 452.013C494.598 451.897 494.512 451.801 494.401 451.74C494.061 451.53 485.941 446.74 477.931 449C477.786 449.044 477.664 449.143 477.589 449.275C477.515 449.407 477.494 449.563 477.531 449.71C477.573 449.854 477.67 449.976 477.801 450.049C477.932 450.122 478.087 450.14 478.231 450.1C485.781 447.99 493.781 452.67 493.781 452.72C493.882 452.775 493.997 452.799 494.111 452.79Z" fill="white"/>
<path d="M465.851 488.59C465.744 490.044 465.297 491.453 464.544 492.702C463.792 493.951 462.756 495.005 461.521 495.78L340.191 565.78C338.849 566.461 337.366 566.816 335.861 566.816C334.356 566.816 332.873 566.461 331.531 565.78L165.531 469.93C164.223 469.239 163.127 468.205 162.364 466.938C161.6 465.671 161.196 464.219 161.196 462.74C161.196 461.261 161.6 459.809 162.364 458.542C163.127 457.275 164.223 456.241 165.531 455.55L286.851 385.55C288.193 384.869 289.676 384.514 291.181 384.514C292.686 384.514 294.169 384.869 295.511 385.55L461.511 481.4C462.748 482.173 463.786 483.227 464.54 484.477C465.294 485.726 465.743 487.135 465.851 488.59Z" fill="#D7D7D7"/>
<path d="M335.861 557.49V566.86C337.366 566.901 338.857 566.557 340.191 565.86L461.521 495.86C462.79 495.192 463.858 494.199 464.618 492.983C465.378 491.767 465.802 490.371 465.847 488.938C465.891 487.505 465.555 486.086 464.873 484.825C464.19 483.564 463.186 482.506 461.961 481.76C463.901 483.15 463.751 485.19 461.521 486.48L340.191 556.48C338.858 557.181 337.367 557.528 335.861 557.49Z" fill="#B8B8B8"/>
<path d="M469.911 481.55C471.118 480.733 472.115 479.642 472.821 478.367C473.527 477.091 473.921 475.667 473.971 474.21V329.42C473.889 327.918 473.454 326.456 472.702 325.153C471.95 323.85 470.901 322.742 469.641 321.92L303.641 226.08C302.353 225.398 300.923 225.028 299.465 225C298.008 224.972 296.564 225.287 295.251 225.92C294.043 226.739 293.045 227.832 292.338 229.109C291.631 230.386 291.234 231.811 291.181 233.27V378.05C291.262 379.553 291.696 381.015 292.448 382.318C293.201 383.622 294.25 384.729 295.511 385.55L461.511 481.4C462.801 482.085 464.234 482.455 465.693 482.481C467.153 482.507 468.598 482.188 469.911 481.55Z" fill="#D7D7D7"/>
<path d="M462.031 481.66C463.273 482.22 464.622 482.5 465.983 482.481C467.345 482.462 468.686 482.144 469.911 481.55C471.117 480.731 472.112 479.64 472.818 478.365C473.523 477.09 473.918 475.666 473.971 474.21V329.42C473.922 327.914 473.485 326.447 472.701 325.16L464.581 329.84C465.359 331.129 465.796 332.595 465.851 334.1V478.9C465.851 481.46 464.181 482.61 462.031 481.66Z" fill="#B8B8B8"/>
<path d="M465.851 334.11V478.9C465.851 481.66 463.911 482.78 461.521 481.4L295.521 385.55C294.26 384.729 293.211 383.622 292.458 382.318C291.706 381.015 291.272 379.553 291.191 378.05V233.27C291.191 230.51 293.131 229.39 295.521 230.77L461.521 326.61C462.781 327.433 463.829 328.541 464.581 329.843C465.333 331.146 465.768 332.608 465.851 334.11Z" fill="#EEEEEE"/>
<path d="M461.521 486.4L340.191 556.4C338.849 557.081 337.366 557.436 335.861 557.436C334.357 557.436 332.873 557.081 331.531 556.4L165.531 460.55C163.141 459.17 163.141 456.93 165.531 455.55L286.851 385.55C288.193 384.869 289.677 384.514 291.181 384.514C292.686 384.514 294.169 384.869 295.511 385.55L461.511 481.4C463.911 482.78 463.911 484.99 461.521 486.4Z" fill="white"/>
<path d="M459.191 334.65L299.191 242.27C297.751 241.44 296.591 242.11 296.591 243.77V369.1C296.639 370.002 296.9 370.88 297.352 371.662C297.804 372.444 298.434 373.108 299.191 373.6L459.191 465.99C460.631 466.82 461.791 466.15 461.791 464.49V339.15C461.743 338.248 461.483 337.37 461.031 336.588C460.579 335.806 459.949 335.142 459.191 334.65Z" fill="white"/>
<path opacity="0.6" d="M459.191 334.65L299.191 242.27C297.751 241.44 296.591 242.11 296.591 243.77V369.1C296.639 370.002 296.9 370.88 297.352 371.662C297.804 372.444 298.434 373.108 299.191 373.6L459.191 465.99C460.631 466.82 461.791 466.15 461.791 464.49V339.15C461.743 338.248 461.483 337.37 461.031 336.588C460.579 335.806 459.949 335.142 459.191 334.65Z" fill="#AEC3FF"/>
<path d="M379.511 326.72C375.251 324.26 371.791 326.26 371.791 331.18C371.938 333.857 372.713 336.461 374.054 338.783C375.396 341.104 377.265 343.076 379.511 344.54C383.771 347 387.221 345.01 387.221 340.09C387.077 337.412 386.304 334.806 384.965 332.483C383.625 330.16 381.757 328.186 379.511 326.72Z" fill="#F0F0F0"/>
<path d="M364.301 353.04C364.301 344.96 369.981 341.37 376.981 345.41L381.351 347.99C388.351 351.99 394.031 361.86 394.031 369.99V372.17L364.301 355.01V353.04Z" fill="#F0F0F0"/>
<path d="M349.271 356.99C349.551 356.34 350.271 356.18 351.081 356.64L403.001 386.64C403.559 387.007 404.023 387.499 404.356 388.077C404.689 388.656 404.883 389.304 404.921 389.97V396.07C404.921 397.07 404.301 397.62 403.461 397.39L403.321 397.34C403.212 397.296 403.105 397.246 403.001 397.19L351.081 367.19C350.521 366.825 350.056 366.334 349.722 365.755C349.388 365.176 349.196 364.527 349.161 363.86V357.79C349.152 357.519 349.189 357.248 349.271 356.99Z" fill="#F0F0F0"/>
<path d="M398.311 387.4C397.311 386.81 396.481 387.29 396.481 388.45C396.513 389.084 396.696 389.702 397.014 390.251C397.333 390.801 397.777 391.266 398.311 391.61C399.311 392.19 400.131 391.72 400.131 390.55C400.098 389.918 399.916 389.304 399.6 388.756C399.284 388.209 398.842 387.744 398.311 387.4Z" fill="#9BB5FF"/>
<path d="M392.271 383.91C391.271 383.33 390.451 383.8 390.451 384.97C390.484 385.602 390.666 386.216 390.982 386.764C391.299 387.311 391.74 387.776 392.271 388.12C393.271 388.71 394.101 388.23 394.101 387.12C394.077 386.477 393.898 385.85 393.579 385.291C393.26 384.732 392.812 384.259 392.271 383.91Z" fill="#9BB5FF"/>
<path d="M386.241 380.43C385.241 379.85 384.421 380.32 384.421 381.48C384.453 382.113 384.634 382.73 384.95 383.28C385.267 383.829 385.709 384.295 386.241 384.64C387.241 385.22 388.071 384.75 388.071 383.59C388.039 382.956 387.856 382.339 387.538 381.789C387.22 381.24 386.775 380.774 386.241 380.43Z" fill="#9BB5FF"/>
<path d="M380.211 376.99C379.211 376.4 378.381 376.88 378.381 377.99C378.414 378.624 378.596 379.242 378.915 379.791C379.233 380.341 379.677 380.806 380.211 381.15C381.211 381.73 382.031 381.26 382.031 380.15C382 379.517 381.819 378.9 381.502 378.351C381.186 377.801 380.743 377.335 380.211 376.99Z" fill="#9BB5FF"/>
<path d="M374.181 373.46C373.181 372.88 372.351 373.35 372.351 374.52C372.388 375.153 372.572 375.769 372.89 376.318C373.208 376.867 373.65 377.333 374.181 377.68C375.181 378.26 376.001 377.79 376.001 376.62C375.966 375.988 375.783 375.372 375.467 374.824C375.151 374.275 374.711 373.808 374.181 373.46Z" fill="#9BB5FF"/>
<path d="M368.141 369.99C367.141 369.41 366.321 369.88 366.321 370.99C366.352 371.623 366.534 372.24 366.85 372.789C367.167 373.339 367.609 373.805 368.141 374.15C369.141 374.73 369.971 374.26 369.971 373.15C369.939 372.516 369.756 371.898 369.438 371.349C369.12 370.8 368.675 370.334 368.141 369.99Z" fill="#9BB5FF"/>
<path d="M362.111 366.5C361.111 365.92 360.291 366.39 360.291 367.55C360.322 368.183 360.504 368.8 360.82 369.349C361.137 369.899 361.579 370.365 362.111 370.71C363.111 371.29 363.931 370.82 363.931 369.66C363.9 369.027 363.719 368.41 363.402 367.861C363.086 367.311 362.643 366.845 362.111 366.5Z" fill="#9BB5FF"/>
<path d="M356.081 362.99C355.081 362.41 354.251 362.88 354.251 364.05C354.287 364.683 354.472 365.299 354.79 365.848C355.108 366.397 355.55 366.863 356.081 367.21C357.081 367.79 357.901 367.32 357.901 366.15C357.864 365.518 357.681 364.903 357.365 364.355C357.049 363.806 356.609 363.339 356.081 362.99Z" fill="#9BB5FF"/>
<path d="M447.441 482.65L293.351 393.65C292.68 393.31 291.939 393.133 291.186 393.133C290.434 393.133 289.692 393.31 289.021 393.65L281.141 398.2C280.88 398.289 280.653 398.457 280.493 398.681C280.332 398.905 280.245 399.174 280.245 399.45C280.245 399.726 280.332 399.995 280.493 400.219C280.653 400.443 280.88 400.611 281.141 400.7L435.251 489.69C435.922 490.03 436.664 490.207 437.416 490.207C438.169 490.207 438.91 490.03 439.581 489.69L447.441 485.15C447.703 485.061 447.929 484.893 448.09 484.669C448.251 484.445 448.337 484.176 448.337 483.9C448.337 483.624 448.251 483.355 448.09 483.131C447.929 482.907 447.703 482.739 447.441 482.65Z" fill="#B8B8B8"/>
<path d="M427.131 494.38L273.041 405.38C272.37 405.04 271.628 404.863 270.876 404.863C270.124 404.863 269.382 405.04 268.711 405.38L220.231 433.38C219.97 433.469 219.743 433.637 219.582 433.861C219.422 434.085 219.335 434.354 219.335 434.63C219.335 434.906 219.422 435.175 219.582 435.399C219.743 435.623 219.97 435.791 220.231 435.88L374.141 524.74C374.815 525.078 375.558 525.254 376.311 525.254C377.065 525.254 377.808 525.078 378.481 524.74L427.121 496.86C427.38 496.773 427.606 496.607 427.766 496.385C427.926 496.163 428.013 495.897 428.014 495.624C428.015 495.35 427.93 495.083 427.772 494.86C427.614 494.637 427.39 494.469 427.131 494.38Z" fill="#B8B8B8"/>
<path d="M289.001 445.44L284.171 442.65C283.971 442.53 283.981 442.33 284.171 442.21L289.781 438.99C289.9 438.929 290.032 438.897 290.166 438.897C290.3 438.897 290.432 438.929 290.551 438.99L295.381 441.78C295.581 441.89 295.571 442.09 295.381 442.22L289.801 445.44C289.678 445.507 289.541 445.541 289.401 445.541C289.261 445.541 289.124 445.507 289.001 445.44ZM298.521 434.37L303.341 437.15C303.551 437.27 303.541 437.47 303.341 437.6L297.761 440.82C297.641 440.879 297.51 440.91 297.376 440.91C297.243 440.91 297.111 440.879 296.991 440.82L292.161 438.03C291.961 437.91 291.971 437.71 292.161 437.59L297.781 434.39C297.895 434.33 298.021 434.298 298.149 434.294C298.277 434.291 298.404 434.317 298.521 434.37ZM314.111 443.37L322.271 448.08C322.481 448.2 322.461 448.4 322.271 448.53L316.701 451.75C316.581 451.809 316.45 451.84 316.316 451.84C316.183 451.84 316.051 451.809 315.931 451.75L307.761 447.04C307.561 446.92 307.571 446.72 307.761 446.6L313.341 443.37C313.461 443.311 313.593 443.28 313.726 443.28C313.86 443.28 313.991 443.311 314.111 443.37ZM305.571 438.44L310.401 441.23C310.601 441.34 310.591 441.54 310.401 441.67L304.781 444.89C304.661 444.949 304.53 444.98 304.396 444.98C304.263 444.98 304.131 444.949 304.011 444.89L299.191 442.1C298.981 441.98 298.991 441.78 299.191 441.66L304.781 438.46C304.901 438.392 305.036 438.355 305.174 438.351C305.311 438.348 305.448 438.378 305.571 438.44ZM324.501 449.37L329.321 452.15C329.531 452.27 329.521 452.47 329.321 452.6L323.741 455.82C323.622 455.881 323.49 455.913 323.356 455.913C323.222 455.913 323.09 455.881 322.971 455.82L318.141 453.04C317.941 452.92 317.951 452.72 318.141 452.59L323.721 449.37C323.842 449.309 323.976 449.278 324.111 449.278C324.247 449.278 324.38 449.309 324.501 449.37ZM331.551 453.44L336.371 456.22C336.581 456.34 336.571 456.54 336.371 456.67L330.781 459.89C330.661 459.949 330.53 459.98 330.396 459.98C330.263 459.98 330.131 459.949 330.011 459.89L325.181 457.1C324.981 456.98 324.991 456.78 325.181 456.66L330.781 453.46C330.899 453.396 331.03 453.36 331.164 453.357C331.298 453.353 331.431 453.382 331.551 453.44ZM309.611 466.54L304.781 463.75C304.581 463.63 304.591 463.43 304.781 463.31L310.361 460.09C310.48 460.029 310.612 459.997 310.746 459.997C310.88 459.997 311.012 460.029 311.131 460.09L315.951 462.88C316.161 462.99 316.141 463.19 315.951 463.32L310.381 466.54C310.262 466.601 310.13 466.633 309.996 466.633C309.862 466.633 309.73 466.601 309.611 466.54ZM316.611 470.61L311.781 467.82C311.581 467.7 311.591 467.51 311.781 467.38L317.361 464.16C317.48 464.099 317.612 464.067 317.746 464.067C317.88 464.067 318.012 464.099 318.131 464.16L322.951 466.95C323.161 467.07 323.151 467.26 322.951 467.39L317.371 470.61C317.26 470.662 317.139 470.689 317.016 470.689C316.893 470.689 316.772 470.662 316.661 470.61H316.611ZM323.661 474.68L318.831 471.89C318.631 471.78 318.641 471.58 318.831 471.45L324.411 468.23C324.53 468.169 324.662 468.137 324.796 468.137C324.93 468.137 325.062 468.169 325.181 468.23L330.081 470.99C330.291 471.11 330.281 471.31 330.081 471.43L324.501 474.65C324.382 474.719 324.248 474.759 324.11 474.764C323.972 474.769 323.835 474.74 323.711 474.68H323.661ZM330.661 478.75L325.831 475.96C325.631 475.85 325.641 475.65 325.831 475.52L331.411 472.3C331.531 472.241 331.663 472.21 331.796 472.21C331.93 472.21 332.061 472.241 332.181 472.3L337.011 475.09C337.211 475.21 337.201 475.41 337.011 475.53L331.431 478.75C331.328 478.793 331.218 478.815 331.106 478.815C330.995 478.815 330.884 478.793 330.781 478.75H330.661ZM295.951 449.51L291.131 446.72C290.921 446.6 290.931 446.41 291.131 446.28L296.781 443.06C296.9 442.999 297.032 442.967 297.166 442.967C297.3 442.967 297.432 442.999 297.551 443.06L302.381 445.85C302.581 445.97 302.571 446.16 302.381 446.29L296.781 449.49C296.669 449.548 296.545 449.58 296.418 449.583C296.292 449.587 296.166 449.562 296.051 449.51H295.951ZM302.451 462.51L291.781 456.25C291.581 456.13 291.591 455.93 291.781 455.81L305.371 447.99C305.49 447.929 305.622 447.897 305.756 447.897C305.89 447.897 306.022 447.929 306.141 447.99L311.701 451.2C311.911 451.32 311.901 451.52 311.701 451.65L304.521 455.79C304.301 455.92 304.291 456.12 304.521 456.23L308.971 458.8C309.181 458.92 309.161 459.12 308.971 459.25L303.391 462.47C303.263 462.541 303.118 462.578 302.971 462.578C302.824 462.578 302.68 462.541 302.551 462.47L302.451 462.51ZM338.451 457.51L343.281 460.3C343.481 460.41 343.471 460.61 343.281 460.74L337.781 463.99C337.661 464.049 337.53 464.08 337.396 464.08C337.263 464.08 337.131 464.049 337.011 463.99L332.191 461.2C331.981 461.08 331.991 460.88 332.191 460.76L337.781 457.53C337.905 457.457 338.045 457.417 338.189 457.413C338.332 457.41 338.474 457.443 338.601 457.51H338.451ZM345.501 461.58L350.331 464.37C350.531 464.49 350.521 464.68 350.331 464.81L344.751 468.03C344.632 468.091 344.5 468.123 344.366 468.123C344.232 468.123 344.1 468.091 343.981 468.03L339.161 465.24C338.951 465.12 338.961 464.92 339.161 464.8L344.741 461.58C344.877 461.493 345.035 461.446 345.196 461.446C345.358 461.446 345.515 461.493 345.651 461.58H345.501ZM380.741 507.23C380.622 507.291 380.49 507.323 380.356 507.323C380.222 507.323 380.09 507.291 379.971 507.23L375.141 504.44C374.941 504.32 374.951 504.12 375.141 504L380.721 500.78C380.84 500.719 380.972 500.687 381.106 500.687C381.24 500.687 381.372 500.719 381.491 500.78L386.311 503.57C386.521 503.68 386.511 503.88 386.311 504.01L380.741 507.23ZM401.911 494.15L406.891 496.99C407.091 497.1 407.081 497.3 406.891 497.43L401.311 500.65C401.191 500.709 401.06 500.74 400.926 500.74C400.793 500.74 400.661 500.709 400.541 500.65L395.721 497.86C395.511 497.74 395.521 497.54 395.721 497.42L401.301 494.2C401.415 494.132 401.543 494.093 401.675 494.084C401.807 494.075 401.939 494.098 402.061 494.15H401.911ZM390.561 503.7C390.442 503.761 390.31 503.793 390.176 503.793C390.042 503.793 389.91 503.761 389.791 503.7L384.971 500.91C384.761 500.79 384.781 500.59 384.971 500.47L390.551 497.25C390.67 497.189 390.802 497.157 390.936 497.157C391.07 497.157 391.202 497.189 391.321 497.25L396.141 500.04C396.341 500.16 396.331 500.35 396.141 500.48L390.561 503.7ZM368.291 509.7L363.461 506.91C363.261 506.79 363.271 506.59 363.461 506.47L369.041 503.25C369.16 503.189 369.292 503.157 369.426 503.157C369.56 503.157 369.692 503.189 369.811 503.25L374.781 505.99C374.991 506.1 374.981 506.3 374.781 506.43L369.201 509.65C369.087 509.717 368.96 509.757 368.828 509.768C368.696 509.778 368.564 509.758 368.441 509.71L368.291 509.7ZM376.111 513.7C375.992 513.761 375.86 513.793 375.726 513.793C375.592 513.793 375.46 513.761 375.341 513.7L370.511 510.91C370.311 510.79 370.321 510.59 370.511 510.47L376.091 507.25C376.21 507.189 376.342 507.157 376.476 507.157C376.61 507.157 376.742 507.189 376.861 507.25L381.691 510.04C381.891 510.15 381.881 510.35 381.691 510.48L376.111 513.7ZM394.861 490.02L399.691 492.8C399.891 492.92 399.881 493.12 399.691 493.25L394.111 496.47C393.991 496.529 393.86 496.56 393.726 496.56C393.593 496.56 393.461 496.529 393.341 496.47L388.521 493.68C388.311 493.56 388.321 493.36 388.521 493.24L394.101 490.01C394.244 489.936 394.405 489.904 394.566 489.916C394.727 489.928 394.881 489.985 395.011 490.08L394.861 490.02ZM359.781 469.72L364.611 472.51C364.811 472.63 364.801 472.83 364.611 472.95L359.031 476.17C358.912 476.231 358.78 476.263 358.646 476.263C358.512 476.263 358.38 476.231 358.261 476.17L353.441 473.38C353.231 473.27 353.251 473.07 353.441 472.94L359.021 469.72C359.139 469.661 359.269 469.63 359.401 469.63C359.533 469.63 359.663 469.661 359.781 469.72ZM387.961 485.99L392.781 488.79C392.991 488.91 392.981 489.11 392.781 489.24L387.201 492.46C387.082 492.521 386.95 492.553 386.816 492.553C386.682 492.553 386.55 492.521 386.431 492.46L381.601 489.68C381.401 489.56 381.411 489.36 381.601 489.23L387.191 485.99C387.311 485.931 387.443 485.9 387.576 485.9C387.71 485.9 387.841 485.931 387.961 485.99ZM352.701 465.63L357.531 468.42C357.731 468.54 357.721 468.74 357.531 468.86L351.951 472.08C351.832 472.141 351.7 472.173 351.566 472.173C351.432 472.173 351.3 472.141 351.181 472.08L346.361 469.29C346.151 469.17 346.171 468.98 346.361 468.85L351.941 465.63C352.06 465.573 352.191 465.546 352.324 465.549C352.456 465.553 352.585 465.587 352.701 465.65V465.63ZM366.781 473.79L371.601 476.58C371.811 476.7 371.791 476.9 371.601 477.02L366.021 480.24C365.902 480.301 365.77 480.333 365.636 480.333C365.502 480.333 365.37 480.301 365.251 480.24L360.431 477.46C360.231 477.34 360.241 477.14 360.431 477.01L366.011 473.79C366.131 473.731 366.263 473.7 366.396 473.7C366.53 473.7 366.661 473.731 366.781 473.79ZM373.831 477.87L378.651 480.65C378.861 480.77 378.841 480.97 378.651 481.09L373.081 484.32C372.961 484.379 372.83 484.41 372.696 484.41C372.563 484.41 372.431 484.379 372.311 484.32L367.481 481.54C367.281 481.42 367.291 481.22 367.481 481.09L373.061 477.87C373.184 477.804 373.321 477.769 373.461 477.769C373.601 477.769 373.738 477.804 373.861 477.87H373.831ZM380.831 481.94L385.651 484.72C385.861 484.84 385.851 485.04 385.651 485.17L380.071 488.39C379.951 488.449 379.82 488.48 379.686 488.48C379.553 488.48 379.421 488.449 379.301 488.39L374.471 485.61C374.271 485.49 374.281 485.29 374.471 485.16L380.141 481.99C380.261 481.931 380.393 481.9 380.526 481.9C380.66 481.9 380.791 481.931 380.911 481.99L380.831 481.94ZM344.831 486.89L340.011 484.11C339.801 483.99 339.821 483.79 340.011 483.66L345.591 480.44C345.71 480.379 345.842 480.347 345.976 480.347C346.11 480.347 346.242 480.379 346.361 480.44L351.191 483.22C351.391 483.34 351.381 483.54 351.191 483.67L345.611 486.89C345.494 486.946 345.366 486.975 345.236 486.975C345.106 486.975 344.978 486.946 344.861 486.89H344.831ZM282.901 425.37L287.781 428.16C287.981 428.27 287.971 428.47 287.781 428.6L282.201 431.82C282.081 431.879 281.95 431.91 281.816 431.91C281.683 431.91 281.551 431.879 281.431 431.82L276.611 429.03C276.401 428.91 276.411 428.71 276.611 428.59L282.191 425.37C282.306 425.314 282.433 425.284 282.561 425.284C282.689 425.284 282.816 425.314 282.931 425.37H282.901ZM291.441 430.3L296.261 433.08C296.471 433.2 296.461 433.4 296.261 433.53L290.681 436.75C290.562 436.811 290.43 436.843 290.296 436.843C290.162 436.843 290.03 436.811 289.911 436.75L285.081 433.97C284.881 433.85 284.891 433.65 285.081 433.52L290.661 430.3C290.786 430.234 290.925 430.2 291.066 430.2C291.207 430.2 291.346 430.234 291.471 430.3H291.441ZM275.851 421.3L280.681 424.08C280.881 424.2 280.871 424.4 280.681 424.53L275.101 427.75C274.981 427.809 274.85 427.84 274.716 427.84C274.583 427.84 274.451 427.809 274.331 427.75L269.511 424.96C269.301 424.84 269.311 424.64 269.511 424.52L275.091 421.29C275.214 421.229 275.35 421.198 275.487 421.2C275.625 421.202 275.76 421.236 275.881 421.3H275.851ZM312.381 458.99L307.551 456.2C307.351 456.08 307.361 455.88 307.551 455.76L313.131 452.53C313.251 452.471 313.383 452.44 313.516 452.44C313.65 452.44 313.781 452.471 313.901 452.53L318.781 455.25C318.981 455.37 318.971 455.57 318.781 455.7L313.201 458.92C313.081 458.998 312.943 459.046 312.8 459.058C312.657 459.07 312.513 459.047 312.381 458.99ZM268.061 417.29C268.181 417.231 268.313 417.2 268.446 417.2C268.58 417.2 268.711 417.231 268.831 417.29L273.651 419.99C273.861 420.11 273.851 420.31 273.651 420.44L268.071 423.66C267.952 423.721 267.82 423.753 267.686 423.753C267.552 423.753 267.42 423.721 267.301 423.66L262.471 420.88C262.271 420.76 262.281 420.56 262.471 420.43L268.061 417.29ZM337.781 482.82L332.961 480.04C332.751 479.92 332.761 479.72 332.961 479.59L338.541 476.37C338.661 476.311 338.793 476.28 338.926 476.28C339.06 476.28 339.191 476.311 339.311 476.37L344.141 479.16C344.341 479.28 344.331 479.48 344.141 479.6L338.561 482.83C338.439 482.889 338.305 482.919 338.17 482.917C338.035 482.916 337.901 482.882 337.781 482.82ZM251.311 432.9L246.491 430.11C246.281 429.99 246.291 429.79 246.491 429.67L252.071 426.45C252.19 426.389 252.322 426.357 252.456 426.357C252.59 426.357 252.722 426.389 252.841 426.45L257.671 429.24C257.871 429.35 257.861 429.55 257.671 429.68L252.091 432.9C251.975 432.958 251.846 432.988 251.716 432.988C251.586 432.988 251.458 432.958 251.341 432.9H251.311ZM266.311 432.37L261.491 429.58C261.281 429.46 261.291 429.26 261.491 429.14L267.071 425.92C267.19 425.859 267.322 425.827 267.456 425.827C267.59 425.827 267.722 425.859 267.841 425.92L272.781 428.69C272.981 428.8 272.971 429 272.781 429.13L267.201 432.35C267.075 432.427 266.931 432.469 266.784 432.473C266.636 432.476 266.491 432.441 266.361 432.37H266.311ZM260.041 421.84C260.161 421.781 260.293 421.75 260.426 421.75C260.56 421.75 260.691 421.781 260.811 421.84L265.641 424.62C265.841 424.74 265.831 424.94 265.641 425.07L260.061 428.29C259.941 428.349 259.81 428.38 259.676 428.38C259.543 428.38 259.411 428.349 259.291 428.29L254.461 425.5C254.261 425.38 254.271 425.18 254.461 425.06L260.041 421.84ZM258.561 420.99L245.011 428.81C244.891 428.869 244.76 428.9 244.626 428.9C244.493 428.9 244.361 428.869 244.241 428.81L239.411 426.02C239.211 425.9 239.221 425.7 239.411 425.58L252.961 417.75C253.081 417.691 253.213 417.66 253.346 417.66C253.48 417.66 253.611 417.691 253.731 417.75L258.551 420.53C258.841 420.66 258.781 420.86 258.611 420.99H258.561ZM274.911 429.99L279.781 432.76C279.981 432.88 279.971 433.07 279.781 433.2L274.201 436.42C274.082 436.481 273.95 436.513 273.816 436.513C273.682 436.513 273.55 436.481 273.431 436.42L268.611 433.63C268.401 433.51 268.411 433.32 268.611 433.19L274.191 429.99C274.31 429.929 274.442 429.897 274.576 429.897C274.71 429.897 274.842 429.929 274.961 429.99H274.911ZM327.981 460.63L332.811 463.42C333.011 463.54 333.001 463.73 332.811 463.86L327.231 467.08C327.112 467.141 326.98 467.173 326.846 467.173C326.712 467.173 326.58 467.141 326.461 467.08L321.641 464.29C321.431 464.17 321.451 463.98 321.641 463.85L327.211 460.63C327.335 460.557 327.475 460.517 327.619 460.513C327.762 460.51 327.904 460.543 328.031 460.61L327.981 460.63ZM259.161 436.99C259.042 437.051 258.91 437.083 258.776 437.083C258.642 437.083 258.51 437.051 258.391 436.99L253.571 434.2C253.361 434.08 253.371 433.89 253.571 433.76L259.151 430.54C259.27 430.479 259.402 430.447 259.536 430.447C259.67 430.447 259.802 430.479 259.921 430.54L264.781 433.29C264.981 433.41 264.971 433.6 264.781 433.73L259.161 436.99ZM320.981 456.54L325.781 459.33C325.981 459.44 325.971 459.64 325.781 459.77L320.201 462.99C320.082 463.051 319.95 463.083 319.816 463.083C319.682 463.083 319.55 463.051 319.431 462.99L314.611 460.2C314.401 460.08 314.411 459.88 314.611 459.76L320.191 456.54C320.313 456.475 320.448 456.441 320.586 456.441C320.724 456.441 320.86 456.475 320.981 456.54ZM373.841 503.16C373.721 503.219 373.59 503.25 373.456 503.25C373.323 503.25 373.191 503.219 373.071 503.16L368.241 500.37C368.041 500.25 368.051 500.05 368.241 499.93L373.821 496.71C373.94 496.649 374.072 496.617 374.206 496.617C374.34 496.617 374.472 496.649 374.591 496.71L379.411 499.5C379.621 499.61 379.611 499.81 379.411 499.94L373.841 503.16ZM384.441 493.16L389.271 495.99C389.471 496.1 389.461 496.3 389.271 496.43L383.691 499.65C383.571 499.709 383.44 499.74 383.306 499.74C383.173 499.74 383.041 499.709 382.921 499.65L378.101 496.86C377.891 496.74 377.911 496.54 378.101 496.42L383.671 493.2C383.789 493.136 383.92 493.1 384.054 493.097C384.188 493.093 384.321 493.122 384.441 493.18V493.16ZM366.021 499.09L361.191 496.3C360.991 496.18 361.001 495.98 361.191 495.86L366.781 492.65C366.901 492.591 367.033 492.56 367.166 492.56C367.3 492.56 367.431 492.591 367.551 492.65L372.371 495.43C372.581 495.55 372.561 495.75 372.371 495.88L366.781 499.09C366.664 499.151 366.535 499.184 366.403 499.187C366.272 499.191 366.141 499.164 366.021 499.11V499.09ZM358.961 495.01L354.141 492.23C353.941 492.11 353.951 491.91 354.141 491.78L359.781 488.58C359.901 488.521 360.033 488.49 360.166 488.49C360.3 488.49 360.431 488.521 360.551 488.58L365.371 491.36C365.581 491.48 365.561 491.68 365.371 491.81L359.791 495.03C359.661 495.096 359.516 495.127 359.371 495.12C359.225 495.113 359.084 495.068 358.961 494.99V495.01ZM351.911 490.94L347.091 488.16C346.881 488.04 346.901 487.84 347.091 487.71L352.671 484.49C352.789 484.431 352.919 484.4 353.051 484.4C353.183 484.4 353.313 484.431 353.431 484.49L358.261 487.27C358.461 487.39 358.451 487.59 358.261 487.72L352.681 490.99C352.561 491.049 352.43 491.08 352.296 491.08C352.163 491.08 352.031 491.049 351.911 490.99V490.94ZM377.391 489.09L382.221 491.87C382.421 491.99 382.411 492.19 382.221 492.32L376.641 495.54C376.521 495.599 376.39 495.63 376.256 495.63C376.123 495.63 375.991 495.599 375.871 495.54L371.051 492.75C370.841 492.63 370.851 492.43 371.051 492.31L376.631 489.08C376.752 489.027 376.883 489.002 377.015 489.008C377.146 489.013 377.275 489.048 377.391 489.11V489.09ZM370.341 485.02L375.171 487.8C375.371 487.92 375.361 488.12 375.171 488.25L369.591 491.47C369.472 491.531 369.34 491.563 369.206 491.563C369.072 491.563 368.94 491.531 368.821 491.47L364.001 488.69C363.791 488.57 363.801 488.37 364.001 488.24L369.581 485.02C369.701 484.966 369.832 484.939 369.963 484.943C370.095 484.946 370.224 484.979 370.341 485.04V485.02ZM342.141 468.73L346.961 471.52C347.171 471.64 347.151 471.84 346.961 471.96L341.381 475.18C341.264 475.241 341.133 475.273 341.001 475.273C340.869 475.273 340.738 475.241 340.621 475.18L335.791 472.39C335.591 472.28 335.601 472.08 335.791 471.95L341.371 468.73C341.492 468.674 341.625 468.647 341.758 468.65C341.892 468.654 342.023 468.688 342.141 468.75V468.73ZM349.141 472.8L353.961 475.59C354.171 475.71 354.151 475.91 353.961 476.03L348.391 479.26C348.271 479.319 348.14 479.35 348.006 479.35C347.873 479.35 347.741 479.319 347.621 479.26L342.791 476.48C342.591 476.36 342.601 476.16 342.791 476.03L348.371 472.81C348.498 472.744 348.639 472.711 348.782 472.712C348.925 472.714 349.066 472.751 349.191 472.82L349.141 472.8ZM335.031 464.66L339.861 467.45C340.061 467.57 340.051 467.77 339.861 467.89L334.281 471.11C334.162 471.171 334.03 471.203 333.896 471.203C333.762 471.203 333.63 471.171 333.511 471.11L328.691 468.32C328.481 468.21 328.501 468.01 328.691 467.88L334.271 464.66C334.396 464.593 334.537 464.559 334.679 464.563C334.821 464.566 334.959 464.607 335.081 464.68L335.031 464.66ZM363.291 480.99L368.111 483.77C368.321 483.89 368.311 484.09 368.111 484.22L362.531 487.44C362.411 487.499 362.28 487.53 362.146 487.53C362.013 487.53 361.881 487.499 361.761 487.44L356.931 484.66C356.731 484.54 356.741 484.34 356.931 484.21L362.521 480.99C362.641 480.931 362.773 480.9 362.906 480.9C363.04 480.9 363.171 480.931 363.291 480.99ZM356.291 476.92L361.111 479.7C361.321 479.82 361.311 480.02 361.111 480.15L355.531 483.37C355.411 483.429 355.28 483.46 355.146 483.46C355.013 483.46 354.881 483.429 354.761 483.37L349.931 480.59C349.731 480.47 349.741 480.27 349.931 480.14L355.511 476.92C355.623 476.862 355.747 476.83 355.874 476.827C356 476.823 356.126 476.848 356.241 476.9L356.291 476.92ZM361.441 505.66L356.611 502.87C356.411 502.75 356.421 502.55 356.611 502.43L362.191 499.2C362.311 499.141 362.443 499.11 362.576 499.11C362.71 499.11 362.841 499.141 362.961 499.2L367.781 501.99C367.991 502.11 367.981 502.31 367.781 502.44L362.211 505.66C362.083 505.724 361.942 505.756 361.799 505.753C361.656 505.749 361.516 505.711 361.391 505.64L361.441 505.66ZM402.781 501.46L408.351 498.24C408.47 498.179 408.602 498.147 408.736 498.147C408.87 498.147 409.002 498.179 409.121 498.24L413.941 500.99C414.141 501.1 414.131 501.3 413.941 501.43L408.361 504.65C408.242 504.711 408.11 504.743 407.976 504.743C407.842 504.743 407.71 504.711 407.591 504.65L402.771 501.86C402.531 501.78 402.551 501.58 402.781 501.46ZM392.211 504.56L397.781 501.34C397.9 501.279 398.032 501.247 398.166 501.247C398.3 501.247 398.432 501.279 398.551 501.34L405.971 505.63C406.171 505.75 406.161 505.94 405.971 506.07L400.391 509.29C400.272 509.351 400.14 509.383 400.006 509.383C399.872 509.383 399.74 509.351 399.621 509.29L392.201 505C391.971 504.88 391.981 504.69 392.201 504.56H392.211ZM411.331 495.23L416.901 491.99C417.021 491.931 417.153 491.9 417.286 491.9C417.42 491.9 417.551 491.931 417.671 491.99L423.611 495.42C423.821 495.54 423.801 495.74 423.611 495.87L418.041 499.09C417.921 499.149 417.79 499.18 417.656 499.18C417.523 499.18 417.391 499.149 417.271 499.09L411.331 495.66C411.091 495.56 411.101 495.36 411.321 495.23H411.331ZM406.781 492.6C406.662 492.661 406.53 492.693 406.396 492.693C406.262 492.693 406.13 492.661 406.011 492.6L401.191 489.81C400.981 489.69 401.001 489.5 401.191 489.37L406.781 486.17C406.9 486.109 407.032 486.077 407.166 486.077C407.3 486.077 407.432 486.109 407.551 486.17L412.381 488.99C412.581 489.11 412.571 489.3 412.381 489.43L406.781 492.6ZM382.381 508.09L387.961 504.87C388.08 504.809 388.212 504.777 388.346 504.777C388.48 504.777 388.612 504.809 388.731 504.87L398.011 510.23C398.211 510.35 398.201 510.55 398.011 510.67L392.431 513.89C392.312 513.951 392.18 513.983 392.046 513.983C391.912 513.983 391.78 513.951 391.661 513.89L382.391 508.53C382.141 508.41 382.151 508.22 382.371 508.09H382.381ZM377.751 514.62L383.331 511.4C383.45 511.339 383.582 511.307 383.716 511.307C383.85 511.307 383.982 511.339 384.101 511.4L390.041 514.83C390.241 514.95 390.231 515.15 390.041 515.27L384.461 518.5C384.341 518.559 384.21 518.59 384.076 518.59C383.943 518.59 383.811 518.559 383.691 518.5L377.761 515.07C377.511 514.99 377.521 514.75 377.781 514.62H377.751ZM354.361 462.33C354.242 462.391 354.11 462.423 353.976 462.423C353.842 462.423 353.71 462.391 353.591 462.33L348.761 459.54C348.561 459.43 348.571 459.23 348.761 459.1L354.341 455.88C354.46 455.819 354.592 455.787 354.726 455.787C354.86 455.787 354.992 455.819 355.111 455.88L359.931 458.67C360.141 458.79 360.121 458.99 359.931 459.11L354.361 462.33ZM368.461 470.48C368.341 470.539 368.21 470.57 368.076 470.57C367.943 470.57 367.811 470.539 367.691 470.48L362.861 467.7C362.661 467.58 362.671 467.38 362.861 467.25L368.441 464.03C368.561 463.971 368.693 463.94 368.826 463.94C368.96 463.94 369.091 463.971 369.211 464.03L374.031 466.82C374.241 466.94 374.231 467.14 374.031 467.26L368.461 470.48ZM399.731 488.53C399.612 488.591 399.48 488.623 399.346 488.623C399.212 488.623 399.08 488.591 398.961 488.53L394.141 485.74C393.931 485.62 393.941 485.42 394.141 485.3L399.721 482.08C399.84 482.019 399.972 481.987 400.106 481.987C400.24 481.987 400.372 482.019 400.491 482.08L405.321 484.87C405.521 484.98 405.511 485.18 405.321 485.31L399.731 488.53ZM361.411 466.4C361.292 466.461 361.16 466.493 361.026 466.493C360.892 466.493 360.76 466.461 360.641 466.4L355.811 463.61C355.611 463.5 355.621 463.3 355.811 463.17L361.411 459.99C361.531 459.931 361.663 459.9 361.796 459.9C361.93 459.9 362.061 459.931 362.181 459.99L367.001 462.78C367.211 462.9 367.201 463.1 367.001 463.22L361.411 466.4ZM375.511 474.55C375.391 474.609 375.26 474.64 375.126 474.64C374.993 474.64 374.861 474.609 374.741 474.55L369.911 471.77C369.711 471.65 369.721 471.45 369.911 471.32L375.491 468.1C375.61 468.039 375.742 468.007 375.876 468.007C376.01 468.007 376.142 468.039 376.261 468.1L381.091 470.88C381.291 471 381.281 471.2 381.091 471.33L375.511 474.55ZM373.881 515.14C374 515.079 374.132 515.047 374.266 515.047C374.4 515.047 374.532 515.079 374.651 515.14L382.071 519.42C382.271 519.54 382.261 519.74 382.071 519.87L376.491 523.09C376.371 523.149 376.24 523.18 376.106 523.18C375.973 523.18 375.841 523.149 375.721 523.09L368.301 518.81C368.101 518.69 368.111 518.49 368.301 518.36L373.881 515.14ZM385.621 480.39C385.502 480.451 385.37 480.483 385.236 480.483C385.102 480.483 384.97 480.451 384.851 480.39L380.021 477.61C379.821 477.49 379.831 477.29 380.021 477.16L385.631 473.99C385.751 473.931 385.883 473.9 386.016 473.9C386.15 473.9 386.281 473.931 386.401 473.99L391.221 476.77C391.431 476.89 391.421 477.09 391.221 477.22L385.621 480.39ZM392.621 484.46C392.501 484.519 392.37 484.55 392.236 484.55C392.103 484.55 391.971 484.519 391.851 484.46L387.031 481.67C386.821 481.55 386.831 481.35 387.031 481.23L392.681 477.99C392.8 477.929 392.932 477.897 393.066 477.897C393.2 477.897 393.332 477.929 393.451 477.99L398.281 480.77C398.481 480.89 398.471 481.09 398.281 481.22L392.621 484.46ZM243.181 439.72C243.301 439.661 243.433 439.63 243.566 439.63C243.7 439.63 243.831 439.661 243.951 439.72L255.831 446.58C256.031 446.7 256.021 446.9 255.831 447.03L250.251 450.25C250.131 450.309 250 450.34 249.866 450.34C249.733 450.34 249.601 450.309 249.481 450.25L237.611 443.39C237.401 443.28 237.411 443.08 237.611 442.95L243.181 439.72ZM258.771 448.72C258.89 448.659 259.022 448.627 259.156 448.627C259.29 448.627 259.422 448.659 259.541 448.72L264.361 451.51C264.571 451.63 264.561 451.83 264.361 451.95L258.781 455.17C258.662 455.231 258.53 455.263 258.396 455.263C258.262 455.263 258.13 455.231 258.011 455.17L253.181 452.38C252.981 452.27 252.991 452.07 253.181 451.94L258.771 448.72ZM354.291 501.56L349.461 498.78C349.261 498.66 349.271 498.46 349.461 498.33L355.041 495.11C355.161 495.051 355.293 495.02 355.426 495.02C355.56 495.02 355.691 495.051 355.811 495.11L360.631 497.89C360.841 498.01 360.821 498.21 360.631 498.34L355.051 501.56C354.94 501.613 354.819 501.641 354.696 501.641C354.573 501.641 354.452 501.613 354.341 501.56H354.291ZM272.871 456.86C272.99 456.799 273.122 456.767 273.256 456.767C273.39 456.767 273.522 456.799 273.641 456.86L278.471 459.64C278.671 459.76 278.661 459.96 278.471 460.09L272.891 463.31C272.771 463.369 272.64 463.4 272.506 463.4C272.373 463.4 272.241 463.369 272.121 463.31L267.301 460.53C267.091 460.41 267.101 460.21 267.301 460.08L272.871 456.86ZM236.131 435.65C236.25 435.589 236.382 435.557 236.516 435.557C236.65 435.557 236.782 435.589 236.901 435.65L241.781 438.42C241.981 438.54 241.971 438.74 241.781 438.86L236.201 442.08C236.082 442.141 235.95 442.173 235.816 442.173C235.682 442.173 235.55 442.141 235.431 442.08L230.611 439.29C230.401 439.18 230.411 438.98 230.611 438.85L236.131 435.65ZM223.501 434.8L237.101 426.99C237.22 426.929 237.352 426.897 237.486 426.897C237.62 426.897 237.752 426.929 237.871 426.99L242.691 429.78C242.901 429.89 242.891 430.09 242.691 430.22L229.121 437.99C229.002 438.051 228.87 438.083 228.736 438.083C228.602 438.083 228.47 438.051 228.351 437.99L223.521 435.2C223.321 435.12 223.331 434.93 223.551 434.8H223.501ZM299.221 472.07C299.341 472.011 299.473 471.98 299.606 471.98C299.74 471.98 299.871 472.011 299.991 472.07L305.931 475.5C306.141 475.61 306.121 475.81 305.931 475.94L300.351 479.16C300.232 479.221 300.1 479.253 299.966 479.253C299.832 479.253 299.7 479.221 299.581 479.16L293.651 475.73C293.441 475.61 293.451 475.41 293.651 475.29L299.221 472.07ZM281.411 461.79C281.531 461.731 281.663 461.7 281.796 461.7C281.93 461.7 282.061 461.731 282.181 461.79L289.601 466.08C289.811 466.2 289.791 466.4 289.601 466.52L284.021 469.74C283.902 469.801 283.77 469.833 283.636 469.833C283.502 469.833 283.37 469.801 283.251 469.74L275.831 465.45C275.631 465.34 275.641 465.14 275.831 465.01L281.411 461.79ZM315.551 481.5C315.67 481.439 315.802 481.407 315.936 481.407C316.07 481.407 316.202 481.439 316.321 481.5L356.081 504.41C356.291 504.53 356.271 504.73 356.081 504.86L350.511 508.08C350.391 508.139 350.26 508.17 350.126 508.17C349.993 508.17 349.861 508.139 349.741 508.08L310.031 485.16C309.821 485.04 309.831 484.84 310.031 484.71L315.551 481.5ZM357.491 505.71C357.611 505.651 357.743 505.62 357.876 505.62C358.01 505.62 358.141 505.651 358.261 505.71L364.201 509.14C364.401 509.25 364.391 509.45 364.201 509.58L358.621 512.8C358.502 512.861 358.37 512.893 358.236 512.893C358.102 512.893 357.97 512.861 357.851 512.8L351.911 509.37C351.711 509.25 351.721 509.05 351.911 508.93L357.491 505.71ZM307.391 476.79C307.51 476.729 307.642 476.697 307.776 476.697C307.91 476.697 308.042 476.729 308.161 476.79L314.091 480.22C314.301 480.34 314.291 480.54 314.091 480.66L308.511 483.89C308.391 483.949 308.26 483.98 308.126 483.98C307.993 483.98 307.861 483.949 307.741 483.89L301.801 480.46C301.601 480.34 301.611 480.15 301.801 480.02L307.391 476.79ZM365.651 510.43C365.77 510.369 365.902 510.337 366.036 510.337C366.17 510.337 366.302 510.369 366.421 510.43L372.361 513.86C372.571 513.98 372.551 514.18 372.361 514.3L366.781 517.53C366.663 517.589 366.533 517.62 366.401 517.62C366.269 517.62 366.139 517.589 366.021 517.53L360.081 514.1C359.871 513.98 359.881 513.79 360.081 513.66L365.651 510.43ZM291.061 467.36C291.181 467.301 291.313 467.27 291.446 467.27C291.58 467.27 291.711 467.301 291.831 467.36L297.781 470.77C297.981 470.89 297.971 471.09 297.781 471.22L292.201 474.44C292.082 474.501 291.95 474.533 291.816 474.533C291.682 474.533 291.55 474.501 291.431 474.44L285.491 471.02C285.291 470.9 285.301 470.7 285.491 470.57L291.061 467.36ZM265.821 452.79C265.941 452.731 266.073 452.7 266.206 452.7C266.34 452.7 266.471 452.731 266.591 452.79L271.421 455.58C271.621 455.7 271.611 455.9 271.421 456.02L265.841 459.25C265.721 459.309 265.59 459.34 265.456 459.34C265.323 459.34 265.191 459.309 265.071 459.25L260.251 456.47C260.041 456.35 260.051 456.15 260.251 456.02L265.821 452.79ZM250.371 441.57L245.551 438.78C245.341 438.67 245.351 438.47 245.551 438.34L251.131 435.12C251.25 435.059 251.382 435.027 251.516 435.027C251.65 435.027 251.782 435.059 251.901 435.12L256.781 437.89C256.981 438.01 256.971 438.21 256.781 438.33L251.201 441.55C251.082 441.616 250.949 441.653 250.814 441.656C250.678 441.66 250.543 441.63 250.421 441.57H250.371ZM281.901 441.37L277.071 438.58C276.871 438.46 276.881 438.26 277.071 438.14L282.651 434.92C282.77 434.859 282.902 434.827 283.036 434.827C283.17 434.827 283.302 434.859 283.421 434.92L288.241 437.7C288.451 437.82 288.441 438.02 288.241 438.15L282.661 441.37C282.549 441.42 282.428 441.446 282.306 441.446C282.184 441.446 282.063 441.42 281.951 441.37H281.901ZM297.901 469L283.801 460.85C283.601 460.74 283.611 460.54 283.801 460.41L289.381 457.19C289.5 457.129 289.632 457.097 289.766 457.097C289.9 457.097 290.032 457.129 290.151 457.19L304.251 465.33C304.461 465.45 304.441 465.65 304.251 465.78L298.671 469C298.553 469.054 298.425 469.082 298.295 469.08C298.165 469.078 298.037 469.048 297.921 468.99L297.901 469ZM258.221 445.62C258.102 445.681 257.97 445.713 257.836 445.713C257.702 445.713 257.57 445.681 257.451 445.62L252.631 442.84C252.421 442.72 252.441 442.52 252.631 442.39L258.201 439.17C258.321 439.111 258.453 439.08 258.586 439.08C258.72 439.08 258.851 439.111 258.971 439.17L263.851 441.99C264.051 442.11 264.041 442.31 263.851 442.43L258.221 445.62ZM265.421 441.04L260.601 438.25C260.391 438.14 260.401 437.94 260.601 437.81L266.171 434.59C266.29 434.529 266.422 434.497 266.556 434.497C266.69 434.497 266.822 434.529 266.941 434.59L271.781 437.36C271.981 437.48 271.971 437.68 271.781 437.8L266.201 441.02C266.085 441.083 265.956 441.117 265.824 441.121C265.691 441.124 265.56 441.097 265.441 441.04H265.421ZM304.961 473.04L300.131 470.25C299.931 470.13 299.941 469.93 300.131 469.81L305.781 466.62C305.9 466.559 306.032 466.527 306.166 466.527C306.3 466.527 306.432 466.559 306.551 466.62L311.371 469.41C311.581 469.52 311.561 469.72 311.371 469.85L305.801 473.07C305.675 473.137 305.534 473.173 305.391 473.173C305.248 473.173 305.107 473.137 304.981 473.07L304.961 473.04ZM273.781 454.62C273.662 454.681 273.53 454.713 273.396 454.713C273.262 454.713 273.13 454.681 273.011 454.62L268.191 451.83C267.981 451.72 267.991 451.52 268.191 451.39L273.771 448.17C273.89 448.109 274.022 448.077 274.156 448.077C274.29 448.077 274.422 448.109 274.541 448.17L279.441 450.99C279.641 451.11 279.631 451.31 279.441 451.43L273.781 454.62ZM340.181 493.42L335.361 490.64C335.151 490.52 335.171 490.32 335.361 490.19L341.011 486.99C341.13 486.929 341.262 486.897 341.396 486.897C341.53 486.897 341.662 486.929 341.781 486.99L346.611 489.77C346.811 489.89 346.801 490.09 346.611 490.22L341.031 493.44C340.906 493.501 340.768 493.531 340.629 493.527C340.489 493.524 340.353 493.487 340.231 493.42H340.181ZM333.181 489.35L328.361 486.57C328.151 486.45 328.161 486.25 328.361 486.12L333.941 482.9C334.061 482.841 334.193 482.81 334.326 482.81C334.46 482.81 334.591 482.841 334.711 482.9L339.541 485.69C339.741 485.81 339.731 486.01 339.541 486.13L333.961 489.35C333.841 489.413 333.707 489.446 333.571 489.446C333.435 489.446 333.301 489.413 333.181 489.35ZM347.281 497.49L342.461 494.71C342.251 494.59 342.271 494.39 342.461 494.26L348.041 491.04C348.161 490.981 348.293 490.95 348.426 490.95C348.56 490.95 348.691 490.981 348.811 491.04L353.631 493.82C353.831 493.94 353.821 494.14 353.631 494.27L348.051 497.49C347.931 497.549 347.8 497.58 347.666 497.58C347.533 497.58 347.401 497.549 347.281 497.49ZM319.081 481.21L314.251 478.42C314.051 478.3 314.061 478.11 314.251 477.98L319.831 474.76C319.95 474.699 320.082 474.667 320.216 474.667C320.35 474.667 320.482 474.699 320.601 474.76L325.421 477.55C325.631 477.67 325.621 477.86 325.421 477.99L319.841 481.21C319.723 481.27 319.593 481.301 319.461 481.301C319.329 481.301 319.199 481.27 319.081 481.21ZM326.081 485.28L321.261 482.49C321.051 482.38 321.061 482.18 321.261 482.05L326.841 478.83C326.96 478.769 327.092 478.737 327.226 478.737C327.36 478.737 327.492 478.769 327.611 478.83L332.441 481.62C332.641 481.74 332.631 481.94 332.441 482.06L326.861 485.28C326.747 485.335 326.623 485.363 326.496 485.363C326.37 485.363 326.245 485.335 326.131 485.28H326.081ZM311.981 477.14L307.151 474.35C306.951 474.23 306.961 474.03 307.151 473.91L312.781 470.69C312.9 470.629 313.032 470.597 313.166 470.597C313.3 470.597 313.432 470.629 313.551 470.69L318.371 473.48C318.581 473.59 318.571 473.79 318.371 473.92L312.791 477.14C312.673 477.2 312.543 477.231 312.411 477.231C312.279 477.231 312.149 477.2 312.031 477.14H311.981ZM279.781 416.91C279.662 416.971 279.53 417.003 279.396 417.003C279.262 417.003 279.13 416.971 279.011 416.91L274.181 414.12C273.981 414 273.991 413.81 274.181 413.68L275.671 412.82C275.79 412.759 275.922 412.727 276.056 412.727C276.19 412.727 276.322 412.759 276.441 412.82L281.261 415.6C281.461 415.72 281.451 415.92 281.261 416.05L279.781 416.91ZM314.471 439.31C314.351 439.369 314.22 439.4 314.086 439.4C313.953 439.4 313.821 439.369 313.701 439.31L308.881 436.53C308.671 436.41 308.681 436.21 308.881 436.08L314.451 432.86C314.57 432.799 314.702 432.767 314.836 432.767C314.97 432.767 315.102 432.799 315.221 432.86L320.051 435.64C320.251 435.76 320.241 435.96 320.051 436.09L314.471 439.31ZM300.371 431.16C300.252 431.221 300.12 431.253 299.986 431.253C299.852 431.253 299.72 431.221 299.601 431.16L294.781 428.39C294.571 428.28 294.581 428.08 294.781 427.95L300.361 424.73C300.481 424.671 300.613 424.64 300.746 424.64C300.88 424.64 301.011 424.671 301.131 424.73L305.961 427.52C306.161 427.64 306.151 427.84 305.961 427.96L300.371 431.16ZM323.081 444.28C322.961 444.339 322.83 444.37 322.696 444.37C322.563 444.37 322.431 444.339 322.311 444.28L317.491 441.5C317.281 441.38 317.301 441.18 317.491 441.05L323.061 437.83C323.181 437.771 323.313 437.74 323.446 437.74C323.58 437.74 323.711 437.771 323.831 437.83L328.661 440.61C328.861 440.73 328.851 440.93 328.661 441.06L323.081 444.28ZM307.421 435.28C307.301 435.339 307.17 435.37 307.036 435.37C306.903 435.37 306.771 435.339 306.651 435.28L301.831 432.5C301.621 432.38 301.631 432.18 301.831 432.05L307.411 428.83C307.531 428.771 307.663 428.74 307.796 428.74C307.93 428.74 308.061 428.771 308.181 428.83L313.011 431.62C313.211 431.74 313.201 431.94 313.011 432.06L307.421 435.28ZM337.181 452.46C337.063 452.519 336.933 452.55 336.801 452.55C336.669 452.55 336.539 452.519 336.421 452.46L331.591 449.67C331.391 449.55 331.401 449.35 331.591 449.23L337.191 445.99C337.311 445.931 337.443 445.9 337.576 445.9C337.71 445.9 337.841 445.931 337.961 445.99L342.781 448.75C342.991 448.87 342.971 449.07 342.781 449.2L337.181 452.46ZM330.181 448.39C330.062 448.451 329.93 448.483 329.796 448.483C329.662 448.483 329.53 448.451 329.411 448.39L324.591 445.61C324.381 445.49 324.401 445.29 324.591 445.16L330.171 441.94C330.289 441.881 330.419 441.85 330.551 441.85C330.683 441.85 330.813 441.881 330.931 441.94L335.761 444.72C335.961 444.84 335.951 445.04 335.761 445.17L330.181 448.39ZM293.931 425.09C293.812 425.151 293.68 425.183 293.546 425.183C293.412 425.183 293.28 425.151 293.161 425.09L288.341 422.3C288.131 422.19 288.141 421.99 288.341 421.86L289.781 420.99C289.901 420.931 290.033 420.9 290.166 420.9C290.3 420.9 290.431 420.931 290.551 420.99L295.371 423.77C295.581 423.89 295.571 424.09 295.371 424.22L293.931 425.09ZM272.781 412.88C272.662 412.941 272.53 412.973 272.396 412.973C272.262 412.973 272.13 412.941 272.011 412.88L267.181 410.09C266.981 409.97 266.991 409.77 267.181 409.65L268.661 408.79C268.781 408.731 268.913 408.7 269.046 408.7C269.18 408.7 269.311 408.731 269.431 408.79L274.261 411.58C274.461 411.7 274.451 411.9 274.261 412.02L272.781 412.88ZM261.061 419.65C260.941 419.709 260.81 419.74 260.676 419.74C260.543 419.74 260.411 419.709 260.291 419.65L255.461 416.87C255.261 416.75 255.271 416.55 255.461 416.42L261.041 413.2C261.161 413.141 261.293 413.11 261.426 413.11C261.56 413.11 261.691 413.141 261.811 413.2L266.601 415.99C266.811 416.11 266.801 416.31 266.601 416.44L261.061 419.65ZM243.431 437.54L238.611 434.75C238.401 434.63 238.411 434.44 238.611 434.31L244.191 431.09C244.31 431.029 244.442 430.997 244.576 430.997C244.71 430.997 244.842 431.029 244.961 431.09L249.781 433.82C249.981 433.94 249.971 434.13 249.781 434.26L244.201 437.48C244.076 437.555 243.934 437.596 243.789 437.6C243.643 437.603 243.499 437.569 243.371 437.5L243.431 437.54ZM286.781 420.99C286.662 421.051 286.53 421.083 286.396 421.083C286.262 421.083 286.13 421.051 286.011 420.99L281.191 418.2C280.981 418.09 280.991 417.89 281.191 417.76L282.681 416.9C282.801 416.841 282.933 416.81 283.066 416.81C283.2 416.81 283.331 416.841 283.451 416.9L288.271 419.68C288.481 419.8 288.461 420 288.271 420.13L286.781 420.99ZM344.231 456.49C344.112 456.551 343.98 456.583 343.846 456.583C343.712 456.583 343.58 456.551 343.461 456.49L338.631 453.7C338.431 453.58 338.441 453.38 338.631 453.26L344.211 450.04C344.33 449.979 344.462 449.947 344.596 449.947C344.73 449.947 344.862 449.979 344.981 450.04L349.781 452.83C349.991 452.94 349.971 453.14 349.781 453.27L344.231 456.49Z" fill="#383838"/>
<path d="M312.961 498.82L265.351 471.33C264.546 470.921 263.655 470.707 262.751 470.707C261.848 470.707 260.957 470.921 260.151 471.33L232.851 487.09C231.411 487.92 231.411 489.26 232.851 490.09L280.461 517.58C281.267 517.989 282.158 518.203 283.061 518.203C283.965 518.203 284.856 517.989 285.661 517.58L312.961 501.82C314.391 500.99 314.391 499.64 312.961 498.82Z" fill="#D7D7D7"/>
<path d="M225.401 366.63H225.461L233.591 361.95C234.061 361.74 234.751 361.95 235.591 362.57C243.151 368.35 253.321 370.15 261.591 367.51C262.126 367.011 262.633 366.483 263.111 365.93L263.261 365.76C263.5 365.484 263.784 365.25 264.101 365.07L264.241 364.99L272.381 360.32C273.311 359.88 274.151 360.32 274.711 361.7C282.571 381.23 299.321 401.02 310.491 405.97C311.336 406.349 312.087 406.909 312.691 407.61C313.494 408.482 313.937 409.625 313.931 410.81L312.321 454.66C312.321 467.33 306.971 480.71 296.061 487.22L287.641 492.08L287.491 492.16C282.939 494.716 277.792 496.024 272.571 495.95C271.401 495.95 270.211 495.9 268.981 495.78C266.589 495.387 264.371 494.278 262.621 492.6C238.211 467.39 226.341 433.27 226.341 414.39L224.781 368.47C224.721 367.48 224.961 366.87 225.401 366.63Z" fill="#92E0F7"/>
<path d="M224.781 368.47L226.391 414.34C226.391 433.22 238.261 467.34 262.671 492.55C264.421 494.228 266.639 495.337 269.031 495.73C270.261 495.85 271.451 495.9 272.621 495.9C277.842 495.974 282.989 494.666 287.541 492.11L287.691 492.03L287.981 491.85C298.891 485.34 304.241 471.96 304.241 459.29L305.781 415.44C305.787 414.255 305.344 413.112 304.541 412.24C303.937 411.539 303.186 410.979 302.341 410.6C291.171 405.6 274.421 385.86 266.561 366.33C266.001 364.95 265.151 364.5 264.221 364.94L264.081 365.02C263.764 365.2 263.48 365.434 263.241 365.71L263.091 365.88C254.751 375.59 238.351 375.58 227.401 367.2C226.571 366.57 225.881 366.37 225.401 366.58H225.341C224.961 366.87 224.721 367.48 224.781 368.47Z" fill="#E1E9FF"/>
<path d="M225.451 366.57C225.921 366.36 226.611 366.57 227.451 367.19C237.761 375.08 252.911 375.55 261.601 367.45C253.291 370.1 243.141 368.3 235.601 362.51C234.771 361.88 234.081 361.68 233.601 361.89L225.451 366.57Z" fill="#B8B8B8"/>
<path d="M264.271 364.93C265.201 364.49 266.051 364.93 266.611 366.32C274.471 385.85 291.221 405.64 302.391 410.59C303.236 410.969 303.987 411.529 304.591 412.23C304.801 412.469 304.988 412.727 305.151 413L313.271 408.31C313.109 408.042 312.925 407.788 312.721 407.55C312.609 407.419 312.489 407.296 312.361 407.18L312.221 407.04L312.081 406.91C311.619 406.499 311.096 406.161 310.531 405.91C299.361 400.96 282.611 381.17 274.751 361.64C274.191 360.26 273.351 359.82 272.421 360.26L264.271 364.93Z" fill="#D7D7D7"/>
<path d="M312.351 407.16C312.31 407.112 312.263 407.068 312.211 407.03L312.351 407.17C312.351 407.17 312.361 407.16 312.351 407.16Z" fill="#27DEBF"/>
<path opacity="0.15" d="M312.211 406.99L312.351 407.13C312.31 407.078 312.263 407.031 312.211 406.99Z" fill="black"/>
<path d="M287.521 492.1L287.671 492.03L296.091 487.16C307.001 480.65 312.351 467.27 312.351 454.6L313.961 410.75C313.979 409.886 313.738 409.037 313.271 408.31L305.151 413C305.611 413.726 305.848 414.571 305.831 415.43L304.221 459.28C304.221 471.95 298.871 485.28 287.961 491.84L287.671 492.02L287.521 492.1Z" fill="#D7D7D7"/>
<path d="M258.781 451.76L271.781 459.26L269.781 435.75C271.331 434.93 272.331 432.91 272.331 430C272.331 424.83 269.181 418.81 265.331 416.57C261.481 414.33 258.331 416.71 258.331 421.88C258.409 424.948 259.284 427.943 260.871 430.57L258.781 451.76Z" fill="#D7D7D7"/>
<path d="M258.801 451.76L270.571 444.96L271.791 459.26L258.801 451.76Z" fill="#B8B8B8"/>
<path d="M265.291 416.57C267.841 418.04 270.051 421.12 271.291 424.52L260.781 430.57C259.194 427.943 258.319 424.948 258.241 421.88C258.271 416.71 261.411 414.33 265.291 416.57Z" fill="#B8B8B8"/>
<path d="M427.861 588.33V592.23C427.861 596.83 424.861 601.42 418.781 604.93C409.641 610.2 396.221 611.49 384.971 608.8L374.531 614.8L366.531 612.98L361.061 616.15L360.761 622.76L357.761 624.47L350.351 625.12L345.031 628.12V631.85L338.341 635.7H321.341L315.251 632.19V628.25L369.591 600.82C367.286 598.563 365.939 595.504 365.831 592.28V588.28C366.651 584.46 369.831 582.49 374.901 579.56C387.011 572.56 406.631 572.56 418.741 579.56C424.221 582.76 427.311 584.22 427.861 588.33ZM411.221 583.76C409.297 582.784 407.169 582.275 405.011 582.275C402.853 582.275 400.726 582.784 398.801 583.76C395.371 585.76 395.371 588.95 398.801 590.93C400.726 591.906 402.853 592.415 405.011 592.415C407.169 592.415 409.297 591.906 411.221 590.93C414.651 588.99 414.651 585.74 411.221 583.76Z" fill="#27DEBF"/>
<path opacity="0.5" d="M427.861 588.33V592.23C427.861 596.83 424.861 601.42 418.781 604.93C409.641 610.2 396.221 611.49 384.971 608.8L374.531 614.8L366.531 612.98L361.061 616.15L360.761 622.76L357.761 624.47L350.351 625.12L345.031 628.12V631.85L338.341 635.7H321.341L315.251 632.19V628.25L369.591 600.82C367.286 598.563 365.939 595.504 365.831 592.28V588.28C366.651 584.46 369.831 582.49 374.901 579.56C387.011 572.56 406.631 572.56 418.741 579.56C424.221 582.76 427.311 584.22 427.861 588.33ZM411.221 583.76C409.297 582.784 407.169 582.275 405.011 582.275C402.853 582.275 400.726 582.784 398.801 583.76C395.371 585.76 395.371 588.95 398.801 590.93C400.726 591.906 402.853 592.415 405.011 592.415C407.169 592.415 409.297 591.906 411.221 590.93C414.651 588.99 414.651 585.74 411.221 583.76Z" fill="#FFC4E4"/>
<path d="M418.781 600.99C409.641 606.27 396.221 607.56 384.971 604.86L374.531 610.86L366.531 609.05L361.061 612.21L360.761 618.83L357.761 620.53L350.351 621.18L344.571 624.4L345.031 627.88L338.341 631.74H321.341L315.251 628.23L369.591 596.85C363.191 590.06 364.951 581.39 374.901 575.65C387.011 568.65 406.631 568.65 418.741 575.65C430.851 582.65 430.891 593.99 418.781 600.99ZM411.221 579.82C409.297 578.844 407.169 578.335 405.011 578.335C402.853 578.335 400.726 578.844 398.801 579.82C395.371 581.82 395.371 585.01 398.801 586.99C400.726 587.966 402.853 588.475 405.011 588.475C407.169 588.475 409.297 587.966 411.221 586.99C414.651 584.99 414.651 581.79 411.221 579.81V579.82Z" fill="#ABDDDA"/>
<path opacity="0.3" d="M396.861 602.79C404.551 602.79 411.721 601.09 417.061 598.01C421.741 595.31 424.431 591.78 424.431 588.33C424.431 584.88 421.741 581.33 417.061 578.64C411.721 575.56 404.551 573.86 396.861 573.86C389.171 573.86 382.001 575.56 376.661 578.64C371.981 581.35 369.291 584.87 369.291 588.33C369.291 591.79 371.981 595.33 376.661 598.01C382.001 601.09 389.171 602.79 396.861 602.79ZM396.861 575.24C404.311 575.24 411.241 576.87 416.381 579.83C420.621 582.28 423.051 585.38 423.051 588.33C423.051 591.28 420.621 594.33 416.381 596.82C411.241 599.82 404.311 601.42 396.861 601.42C389.411 601.42 382.481 599.78 377.341 596.82C373.101 594.37 370.671 591.27 370.671 588.33C370.671 585.39 373.101 582.33 377.341 579.83C382.481 576.87 389.411 575.24 396.861 575.24Z" fill="black"/>
<path opacity="0.1" d="M408.021 604.99V608.99C400.421 610.643 392.548 610.588 384.971 608.83V604.89C392.553 606.623 400.425 606.657 408.021 604.99Z" fill="black"/>
<path opacity="0.1" d="M374.531 610.89V614.83L366.511 613.02V609.07L374.531 610.89Z" fill="black"/>
<path opacity="0.1" d="M361.031 612.23V616.18L360.741 622.8V618.85L361.031 612.23Z" fill="black"/>
<path opacity="0.1" d="M357.791 620.55V624.5L350.381 625.15V621.2L357.791 620.55Z" fill="black"/>
<path opacity="0.1" d="M321.381 631.76H338.371V635.71H321.381V631.76Z" fill="black"/>
<path opacity="0.15" d="M315.291 628.25V632.19L321.381 635.71V631.76L318.711 630.22V631.92L317.241 631.07V629.35L315.291 628.25Z" fill="black"/>
<path d="M317.241 629.35L318.711 630.22V631.92L317.241 631.07V629.35Z" fill="#27DEBF"/>
<path opacity="0.15" d="M317.241 629.35V631.07L372.971 598.9L371.491 598.03L317.241 629.35Z" fill="black"/>
<path opacity="0.15" d="M371.491 598.03V599.75L372.971 598.9L371.491 598.03Z" fill="black"/>
<path d="M129.251 481.55C128.541 455.55 130.631 449.26 137.571 444.49L140.251 459.58C140.251 459.58 137.091 477.37 137.431 483.29C137.731 488.5 138.241 495.01 139.431 499.21C139.658 499.955 140.149 500.591 140.811 501C142.252 502.017 143.535 503.24 144.621 504.63C145.621 505.72 146.541 505.99 146.411 506.34C146.208 506.721 145.869 507.012 145.462 507.154C145.054 507.297 144.608 507.281 144.211 507.11C143.324 506.764 142.484 506.307 141.711 505.75C142.319 507.35 143.183 508.839 144.271 510.16C146.751 513.16 146.861 515.06 141.861 515.11C138.721 515.11 136.221 513.2 133.861 506.3C132.944 503.772 132.209 501.183 131.661 498.55C130.511 491.72 129.361 485.74 129.251 481.55Z" fill="#B16668"/>
<path d="M143.401 442.51C141.27 442.133 139.074 442.457 137.143 443.434C135.212 444.412 133.65 445.989 132.691 447.93C129.781 453.12 129.071 462.06 128.691 470.93C128.691 470.93 134.461 475.76 141.381 473.39L143.401 442.51Z" fill="#27DEBF"/>
<path d="M143.401 442.51C141.27 442.133 139.074 442.457 137.143 443.434C135.212 444.412 133.65 445.989 132.691 447.93C129.781 453.12 129.071 462.06 128.691 470.93C128.691 470.93 134.461 475.76 141.381 473.39L143.401 442.51Z" fill="#9BB5FF"/>
<path d="M133.661 585.77C133.141 585.97 133.011 586.97 132.931 588.96C132.871 590.46 132.541 593.09 134.311 593.62C136.081 594.15 138.661 593.87 139.791 592.45C141.158 590.548 142.62 588.716 144.171 586.96C145.911 585.09 147.801 583.33 148.511 580.7C149.141 578.33 148.611 577.3 146.991 576.61C144.761 575.61 141.261 578.76 139.511 579.25C138.011 579.67 134.191 585.57 133.661 585.77Z" fill="#263238"/>
<path d="M133.661 583.92V586.37C134.58 586.955 135.641 587.279 136.729 587.307C137.818 587.335 138.894 587.067 139.841 586.53C139.951 586.3 140.481 583.04 140.481 583.04L133.661 583.92Z" fill="#B16668"/>
<path d="M153.461 599.85C153.031 601.163 152.671 602.499 152.381 603.85C152.081 605.33 151.651 607.85 152.161 608.91C152.671 609.97 154.701 610.74 157.831 610.72C159.831 610.72 163.011 612.08 165.171 613.29C167.331 614.5 172.051 615.03 174.421 614.75C177.201 614.42 180.081 612.81 180.531 611.66C180.981 610.51 180.391 609.31 173.821 606.51C173.761 606.51 164.701 603.51 161.531 600.04L153.461 599.85Z" fill="#263238"/>
<path d="M153.461 597.21V600.06C153.461 601.06 154.671 602.64 157.841 602.53C160.061 602.45 161.621 601.85 161.531 600.02V597.37L153.461 597.21Z" fill="#B16668"/>
<path d="M132.071 551.49C132.615 547.162 133.583 542.898 134.961 538.76C134.961 538.76 134.091 527.76 133.671 517.37C133.221 506.12 133.671 491.99 133.481 489.18C133.481 489.18 169.771 481.84 170.421 494.84C171.071 507.84 168.981 540.93 168.551 546.64C168.121 552.35 167.141 557.41 165.961 566.64C164.781 575.87 161.531 597.35 161.531 597.35C160.277 597.988 158.884 598.307 157.476 598.28C156.069 598.252 154.69 597.877 153.461 597.19C153.461 597.19 150.901 571.19 151.171 564.6C151.379 559.719 152.219 554.885 153.671 550.22C153.671 550.22 152.981 539.5 152.371 530.22C151.761 520.94 151.121 516.41 150.981 512.36L150.201 511.97C150.201 511.97 149.401 528.06 148.971 533.77C148.541 539.48 147.641 544.95 145.971 555.56C144.531 564.77 140.261 584.24 140.261 584.24C136.121 586.48 133.641 583.94 133.641 583.94C133.641 583.94 130.961 559.48 132.071 551.49Z" fill="#AEC3FF"/>
<path d="M150.981 512.34C150.981 512.34 142.181 507.99 137.781 504.09C137.781 504.09 141.871 509.85 147.241 512.41C147.241 512.41 149.151 532.41 149.141 531.99L150.251 512.31L150.981 512.34Z" fill="#9BB5FF"/>
<path d="M158.811 438.4L156.671 450.22L145.991 449.44L148.231 436.04L158.811 438.4Z" fill="#B16668"/>
<path d="M134.721 448.57C135.771 445.36 139.851 441.86 143.931 442.57C149.988 443.615 155.955 445.123 161.781 447.08C165.511 448.41 168.921 451.64 169.231 463.93C169.231 463.93 170.481 492.57 170.501 498.11C162.706 501.168 154.215 502.006 145.971 500.53C134.751 498.08 133.391 493.42 133.391 493.42C133.391 493.42 133.251 472.82 133.591 463.93C133.891 456.37 133.991 450.78 134.721 448.57Z" fill="#92E0F7"/>
<path d="M134.721 448.57C135.771 445.36 139.851 441.86 143.931 442.57C149.988 443.615 155.955 445.123 161.781 447.08C165.511 448.41 168.921 451.64 169.231 463.93C169.231 463.93 170.481 492.57 170.501 498.11C162.706 501.168 154.215 502.006 145.971 500.53C134.751 498.08 133.391 493.42 133.391 493.42C133.391 493.42 133.251 472.82 133.591 463.93C133.891 456.37 133.991 450.78 134.721 448.57Z" fill="#C1E4FA"/>
<path d="M167.051 423.99C167.051 423.99 169.761 428.31 169.431 428.72C169.101 429.13 167.031 429.46 167.031 429.46L167.051 423.99Z" fill="#9A4A4D"/>
<path d="M159.541 412.08C165.181 413.4 166.761 415.93 167.091 424.96C167.441 434.38 166.411 437.32 165.151 438.56C164.291 439.4 159.651 439.45 157.321 438.75C154.411 437.88 147.841 435.38 144.851 430.58C141.331 424.92 140.541 417.35 144.511 414.34C150.111 410.1 157.241 411.54 159.541 412.08Z" fill="#B16668"/>
<path d="M167.031 414.43C165.736 416.317 163.909 417.776 161.781 418.62C160.701 419.85 161.291 424.62 159.391 425.42C159.391 425.42 158.571 421.92 155.631 422.3C152.691 422.68 152.181 426.42 153.991 428.75C155.801 431.08 157.551 430.24 157.551 430.24C157.551 430.24 157.351 435.24 155.081 437.98C155.081 437.98 152.561 438.74 147.961 437.65C145.141 436.98 141.211 433.35 139.611 429.56C136.221 421.56 136.141 414.39 141.251 412.36C141.881 408.71 144.801 407.14 148.101 406.46C155.211 404.99 159.791 409.46 165.261 409.04C168.391 408.82 168.971 411.1 167.031 414.43Z" fill="#263238"/>
<path d="M141.141 413.58L137.791 411.51C137.899 411.238 138.065 410.993 138.278 410.793C138.49 410.592 138.744 410.44 139.022 410.348C139.299 410.256 139.593 410.226 139.884 410.26C140.174 410.294 140.453 410.391 140.702 410.545C140.951 410.699 141.163 410.905 141.323 411.15C141.484 411.394 141.588 411.671 141.63 411.96C141.672 412.249 141.65 412.544 141.566 412.824C141.481 413.104 141.336 413.362 141.141 413.58Z" fill="#263238"/>
<path d="M206.941 468.36C205.191 469.14 184.501 484.42 181.281 482.64C178.061 480.86 161.511 461.53 161.511 461.53C160.113 459.37 159.369 456.853 159.369 454.28C159.369 451.707 160.113 449.19 161.511 447.03C161.511 447.03 166.811 448.03 169.591 452.21C172.371 456.39 184.351 471.44 184.351 471.44C187.311 469.96 190.265 468.46 193.211 466.94C195.631 465.68 198.061 464.43 200.431 463.08C201.098 462.771 201.725 462.385 202.301 461.93C203.471 460.77 203.301 457.93 203.241 456.45C203.241 455.74 203.241 455.03 203.141 454.32C203.041 453.45 202.871 451.32 204.441 452C204.739 452.142 204.996 452.355 205.191 452.62C205.432 452.945 205.621 453.306 205.751 453.69C206.041 454.61 205.951 455.62 206.221 456.55C206.254 456.687 206.319 456.814 206.411 456.92C206.551 457.028 206.725 457.082 206.901 457.07C209.181 457 211.341 453.8 212.391 452.07C212.755 451.245 213.357 450.548 214.121 450.07C215.361 449.48 216.861 450.32 217.671 451.44C218.647 452.912 219.046 454.692 218.791 456.44C218.58 458.832 217.515 461.068 215.791 462.74C213.186 465.108 210.192 467.009 206.941 468.36Z" fill="#B16668"/>
<path d="M159.781 446.41C162.061 446.67 165.851 446.84 169.571 451.05C173.951 455.99 179.661 463.99 179.661 463.99C179.078 466.356 177.824 468.503 176.05 470.174C174.276 471.845 172.058 472.969 169.661 473.41C169.661 473.41 161.831 465.41 159.661 460.97C157.491 456.53 157.131 449.39 159.781 446.41Z" fill="#27DEBF"/>
<path d="M159.781 446.41C162.061 446.67 165.851 446.84 169.571 451.05C173.951 455.99 179.661 463.99 179.661 463.99C179.078 466.356 177.824 468.503 176.05 470.174C174.276 471.845 172.058 472.969 169.661 473.41C169.661 473.41 161.831 465.41 159.661 460.97C157.491 456.53 157.131 449.39 159.781 446.41Z" fill="#9BB5FF"/>
</g>
<defs>
<clipPath id="clip0_23:521">
<rect width="461.99" height="450.13" fill="white" transform="matrix(-1 0 0 1 522.991 225)"/>
</clipPath>
</defs>
</svg>
