<svg width="18" height="18" viewBox="0 0 18 18" fill="none" xmlns="http://www.w3.org/2000/svg">
<g clip-path="url(#clip0)">
<path d="M8.54994 0C5.90999 0 3.76221 2.26083 3.76221 5.03975V7.50748C3.76221 7.67552 3.89176 7.81179 4.0514 7.81179H5.65643C5.81608 7.81179 5.94553 7.67552 5.94553 7.50748V5.03975C5.94553 3.52811 7.11384 2.29827 8.54991 2.29827C9.98597 2.29827 11.1543 3.52811 11.1543 5.03975V7.50748C11.1543 7.67552 11.2839 7.81179 11.4435 7.81179H13.0486C13.2082 7.81179 13.3377 7.67552 13.3377 7.50748V5.03975C13.3377 2.26083 11.1899 0 8.54994 0ZM12.7595 7.20316H11.7326V5.03975C11.7326 3.1925 10.3049 1.68964 8.55001 1.68964C6.79515 1.68964 5.36744 3.1925 5.36744 5.03975V7.20316H4.3405V5.03975C4.3405 2.59643 6.22885 0.60866 8.54997 0.60866C10.8711 0.60866 12.7595 2.59643 12.7595 5.03975V7.20316Z" fill="#8E8E8E"/>
<path d="M13.7143 7.20312H3.38558C2.70074 7.20312 2.14355 7.78964 2.14355 8.51052V16.6926C2.14355 17.4135 2.70074 18 3.38558 18H13.7143C14.3992 18 14.9563 17.4135 14.9563 16.6925V8.51052C14.9563 7.78964 14.3992 7.20312 13.7143 7.20312ZM14.3781 16.6925C14.3781 17.0779 14.0804 17.3913 13.7143 17.3913H3.38558C3.01953 17.3913 2.72175 17.0779 2.72175 16.6925V8.51052C2.72175 8.1252 3.01953 7.81175 3.38558 7.81175H13.7143C14.0804 7.81175 14.3781 8.1252 14.3781 8.51052V16.6925Z" fill="#8E8E8E"/>
<path d="M9.52232 13.0002C9.86008 12.7006 10.0566 12.2627 10.0566 11.792C10.0566 10.9176 9.38078 10.2062 8.55006 10.2062C7.71931 10.2062 7.04346 10.9176 7.04346 11.792C7.04346 12.2627 7.24001 12.7006 7.57783 13.0003L7.25283 14.6302C7.23496 14.72 7.25644 14.8134 7.31135 14.8846C7.36629 14.9557 7.44871 14.9971 7.53578 14.9971H9.56434C9.65144 14.9971 9.73387 14.9557 9.78874 14.8846C9.84362 14.8133 9.86509 14.7199 9.84722 14.6302L9.52232 13.0002ZM9.0461 12.6148C8.94456 12.6829 8.89363 12.8101 8.91838 12.9341L9.20828 14.3884H7.89188L8.18184 12.9342C8.20656 12.8101 8.15573 12.683 8.05413 12.6149C7.78333 12.4335 7.62168 12.1259 7.62168 11.7921C7.62168 11.2532 8.03813 10.8149 8.55006 10.8149C9.06196 10.8149 9.4784 11.2532 9.4784 11.7921C9.47847 12.126 9.31682 12.4335 9.0461 12.6148Z" fill="#8E8E8E"/>
</g>
<defs>
<clipPath id="clip0">
<rect width="17.1" height="18" fill="white"/>
</clipPath>
</defs>
</svg>
